<svg xmlns="http://www.w3.org/2000/svg" viewBox="0 0 512.005 512.005"><path d="M256 .005c141.385 0 256 114.615 256 256s-114.615 256-256 256S0 397.39 0 256.005s114.615-256 256-256z" fill="#ffca4f"/><path d="M13.408 98.971h442.053v322.002H13.408V98.971z" fill="#dfe1e3"/><path d="M0 87.433h446.612v325.605H0V87.433z" fill="#fff"/><path d="M13.408 87.433H460.02v46.169H13.408V87.433z" fill="#ff5b61"/><path d="M341.701 157.186h30.84v30.84h-30.84v-30.84z" fill="#fbb429"/><path d="M432.294 22.429a72.417 72.417 0 0 1 9.007 2.411l13.496-18.096 20.332 11.741-8.937 20.752a73.317 73.317 0 0 1 6.582 6.586l20.752-8.937 11.741 20.332-18.096 13.491a72.417 72.417 0 0 1 2.411 9.007l22.424 2.637v23.477l-22.424 2.637a72.417 72.417 0 0 1-2.411 9.007l18.096 13.491-11.736 20.332-20.752-8.933a74.472 74.472 0 0 1-6.582 6.582l8.937 20.757-20.332 11.736-13.496-18.101a71.953 71.953 0 0 1-9.007 2.411l-2.637 22.429h-23.477l-2.637-22.424a72.417 72.417 0 0 1-9.007-2.411l-13.491 18.096-20.332-11.736 8.933-20.757a73.273 73.273 0 0 1-6.582-6.582l-20.757 8.933-11.736-20.332 18.096-13.496a72.417 72.417 0 0 1-2.411-9.007l-22.424-2.637V82.348l22.42-2.637a72.417 72.417 0 0 1 2.411-9.007l-18.092-13.491 11.736-20.332 20.757 8.933a73.668 73.668 0 0 1 6.582-6.582l-8.933-20.752L381.05 6.739l13.496 18.096a73.121 73.121 0 0 1 9.007-2.411L406.189 0h23.477l2.637 22.424-.009.005zm-14.378 23.223c-26.752 0-48.437 21.69-48.437 48.437 0 26.752 21.685 48.437 48.437 48.437 26.747 0 48.437-21.685 48.437-48.437 0-26.747-21.685-48.437-48.437-48.437z" fill="#20d0c2"/><path d="M417.916 34.696c32.798 0 59.393 26.59 59.393 59.393s-26.59 59.397-59.393 59.397-59.397-26.59-59.397-59.397c-.001-32.798 26.589-59.393 59.397-59.393z" fill="#fff"/><g fill="#807d7d"><path d="M366.606 92.117h12.304v3.94h-12.304v-3.944.004zm102.624 3.94h-12.309v-3.94h12.309v3.94zm-53.282 49.342v-12.304h3.94v12.304h-3.94zm3.94-102.625v12.304h-3.94V42.774h3.94zM417.865 62.377a2.792 2.792 0 0 1 2.785 2.785v27.043h27.043a2.79 2.79 0 0 1 2.785 2.781 2.794 2.794 0 0 1-2.785 2.785h-29.828v-2.785h-2.785V65.157a2.792 2.792 0 0 1 2.785-2.785v.005z"/></g><path d="M417.916 88.667a5.417 5.417 0 0 1 5.418 5.418 5.417 5.417 0 0 1-5.418 5.418 5.416 5.416 0 0 1-2.942-.864l-21.87 22.064a1.175 1.175 0 1 1-1.668-1.658l21.888-22.082a5.42 5.42 0 0 1 4.591-8.3v.004z" fill="#ff5b61"/><g fill="#dfe1e3"><path d="M109.511 157.186h30.84v30.84h-30.84v-30.84z" stroke="#fff" stroke-width="194.47"/><path d="M155.948 157.186h30.84v30.84h-30.84v-30.84zM202.385 157.186h30.835v30.84h-30.835v-30.84z"/></g><path d="M248.822 157.186h30.84v30.84h-30.84v-30.84z" fill="#20d0c2"/><path d="M295.26 157.186h30.84v30.84h-30.84v-30.84z" fill="#dfe1e3"/><path d="M63.074 157.186h30.84v30.84h-30.84v-30.84z" fill="#fbb429"/><path d="M109.511 205.752h30.84v30.84h-30.84v-30.84z" fill="#dfe1e3"/><path d="M155.948 205.752h30.84v30.84h-30.84v-30.84z" fill="#20d0c2"/><path d="M202.385 205.752h30.835v30.84h-30.835v-30.84z" fill="#dfe1e3"/><path d="M248.822 205.752h30.84v30.84h-30.84v-30.84z" fill="#fbb429"/><g fill="#dfe1e3"><path d="M295.26 205.752h30.84v30.84h-30.84v-30.84zM341.701 205.752h30.84v30.84h-30.84v-30.84zM63.074 205.752h30.84v30.84h-30.84v-30.84zM109.511 254.314h30.84v30.84h-30.84v-30.84zM155.948 254.314h30.84v30.84h-30.84v-30.84zM202.385 254.314h30.835v30.84h-30.835v-30.84zM248.822 254.314h30.84v30.84h-30.84v-30.84zM295.26 254.314h30.84v30.84h-30.84v-30.84z"/></g><g fill="#fbb429"><path d="M341.701 254.314h30.84v30.84h-30.84v-30.84zM63.074 254.314h30.84v30.84h-30.84v-30.84z"/></g><path d="M109.511 302.881h30.84v30.84h-30.84v-30.84z" fill="#20d0c2"/><g fill="#dfe1e3"><path d="M155.948 302.881h30.84v30.84h-30.84v-30.84zM202.385 302.881h30.835v30.84h-30.835v-30.84zM248.822 302.881h30.84v30.84h-30.84v-30.84z"/></g><path d="M295.26 302.881h30.84v30.84h-30.84v-30.84z" fill="#20d0c2"/><g fill="#dfe1e3"><path d="M341.701 302.881h30.84v30.84h-30.84v-30.84zM63.074 302.881h30.84v30.84h-30.84v-30.84zM109.511 349.664h30.84v30.84h-30.84v-30.84zM63.074 349.664h30.84v30.84h-30.84v-30.84z"/></g><path d="M116.55 316.363a1.35 1.35 0 0 1 2.064-1.741l4.78 5.69 13.071-11.459a1.356 1.356 0 0 1 1.908.125c.49.564.434 1.418-.129 1.908l-14.106 12.364-.023.018a1.344 1.344 0 0 1-1.898-.166l-5.667-6.743v.004z" fill="#fff"/><path d="M127.469 280.544c9.806 0 18.683 3.977 25.108 10.401s10.401 15.302 10.401 25.108c0 9.806-3.977 18.683-10.401 25.108s-15.302 10.401-25.108 10.401-18.683-3.977-25.108-10.401c-6.425-6.425-10.401-15.302-10.401-25.108 0-9.806 3.977-18.683 10.401-25.108 6.425-6.424 15.302-10.401 25.108-10.401zm21.768 13.741c-5.57-5.57-13.265-9.016-21.768-9.016a30.677 30.677 0 0 0-21.764 9.016c-5.57 5.57-9.016 13.265-9.016 21.764 0 8.503 3.446 16.198 9.016 21.768s13.265 9.016 21.764 9.016c8.503 0 16.198-3.446 21.768-9.016s9.016-13.265 9.016-21.768a30.677 30.677 0 0 0-9.016-21.764z" fill="#fbb429"/></svg>