<svg xmlns="http://www.w3.org/2000/svg" viewBox="0 0 512 512"><path d="M256 0c141.385 0 256 114.615 256 256S397.385 512 256 512 0 397.385 0 256 114.615 0 256 0z" fill="#5dddd3"/><path d="M409.389 361.363h74.339c-.342 26.692-.965 79.609-37.172 80.778-20.443 0-37.172-16.725-37.172-37.167v-43.61h.005z" fill="#20d0c2"/><path d="M100.371 82.69v322.284c0 20.396 16.725 37.167 37.172 37.167h309.023c-20.443 0-37.172-16.725-37.172-37.167V80.976L100.371 82.69z" fill="#ff5b61"/><path d="M114.375 96.62v308.354c0 12.688 10.475 23.163 23.163 23.163h263.413a50.778 50.778 0 0 1-5.566-23.163V95.059l-281.01 1.561z" fill="#fff"/><path d="M198.847 237.239h113.705v10.706H198.847v-10.706z" fill="#20d0c2"/><path d="M137.307 259.907h236.791v4.628H137.307v-4.628zm0 49.689h162.331v4.628H137.307v-4.628zm0-12.42h236.791v4.628H137.307v-4.628zm0-12.424h236.791v4.628H137.307v-4.628zm0-12.42h236.791v4.628H137.307v-4.628z" fill="#c3cccf"/><g fill="#20d0c2"><path d="M304.922 331.845h60.035v5.704h-60.035v-5.704zM171.518 226.851v-10.014h-12.009l12.009 10.014zM339.886 216.837v10.014l12.013-10.014h-12.013z"/><path d="M351.9 216.837l-12.013 10.014h48.044l-18.018-20.032 18.018-20.036H351.9v30.054z"/></g><path d="M339.886 216.837H351.9V176.77H159.51v40.067H339.886z" fill="#5dddd3"/><path d="M159.509 216.837v-30.054h-36.036l18.018 20.036-18.018 20.032h48.044l-12.008-10.014z" fill="#20d0c2"/><path d="M197.305 200.935c.162 0 .305.06.43.185l1.164 1.266a6.388 6.388 0 0 1-2.383 1.838c-.942.425-2.078.642-3.399.642-1.182 0-2.245-.203-3.187-.605a7.018 7.018 0 0 1-2.416-1.686c-.67-.721-1.178-1.58-1.533-2.573-.356-.998-.536-2.088-.536-3.27 0-1.196.189-2.296.573-3.289a7.444 7.444 0 0 1 1.612-2.568 7.379 7.379 0 0 1 2.48-1.681c.961-.397 2.028-.596 3.192-.596 1.159 0 2.189.189 3.09.573.901.383 1.663.882 2.296 1.496l-.988 1.376a.868.868 0 0 1-.222.231c-.092.069-.222.097-.383.097a.76.76 0 0 1-.342-.092c-.115-.065-.245-.139-.383-.231s-.3-.189-.48-.3a4.157 4.157 0 0 0-.637-.305 5.522 5.522 0 0 0-.841-.236 6.077 6.077 0 0 0-1.109-.092 4.97 4.97 0 0 0-1.954.379 4.161 4.161 0 0 0-1.524 1.104c-.425.48-.757 1.067-.993 1.76-.236.693-.351 1.483-.351 2.374s.129 1.69.383 2.388c.249.697.591 1.284 1.025 1.76.434.476.942.841 1.529 1.095a4.721 4.721 0 0 0 1.894.383c.406 0 .771-.023 1.099-.065a4.71 4.71 0 0 0 .905-.208 4.297 4.297 0 0 0 1.511-.924c.074-.069.152-.12.231-.162a.537.537 0 0 1 .254-.06l-.007-.004zm6.605-9.81v4.416h5.57v2.277h-5.57v4.503h7.067v2.365H200.94V188.77h10.037v2.356h-7.067zm14.498 5.219a4.63 4.63 0 0 0 1.46-.212 2.783 2.783 0 0 0 1.021-.577c.268-.245.466-.536.6-.873s.199-.707.199-1.113c0-.808-.263-1.427-.799-1.861-.531-.434-1.344-.651-2.439-.651h-1.894v5.284h1.852v.003zm7.616 8.341h-2.674c-.508 0-.873-.199-1.099-.591l-3.349-5.099c-.125-.189-.259-.328-.411-.406-.152-.079-.374-.12-.67-.12h-1.266v6.217h-2.961V188.77h4.854c1.076 0 2.005.111 2.781.333.776.226 1.409.54 1.903.947a3.67 3.67 0 0 1 1.095 1.446c.236.559.351 1.182.351 1.857 0 .536-.079 1.044-.236 1.52-.157.476-.383.91-.684 1.298-.296.388-.665.73-1.099 1.025a5.653 5.653 0 0 1-1.496.693 2.714 2.714 0 0 1 .966.924l3.986 5.875h.009zm12.425-13.482v-2.429H225.89v2.429h4.799v13.482h2.961v-13.482h4.799zm5.066 13.482h-2.974v-15.916h2.974v15.916zm6.527-13.56v4.711h5.963v2.369h-5.963v6.48h-2.974v-15.916h10.037v2.356h-7.067.004zm12.461 13.56h-2.97v-15.916h2.97v15.916zm14.485-3.75c.162 0 .305.06.43.185l1.164 1.266a6.388 6.388 0 0 1-2.383 1.838c-.942.425-2.078.642-3.395.642-1.182 0-2.245-.203-3.187-.605a7.027 7.027 0 0 1-2.416-1.686c-.67-.721-1.178-1.58-1.533-2.573-.356-.998-.536-2.088-.536-3.27 0-1.196.189-2.296.573-3.289a7.444 7.444 0 0 1 1.612-2.568 7.379 7.379 0 0 1 2.48-1.681c.961-.397 2.028-.596 3.192-.596 1.159 0 2.189.189 3.09.573.901.383 1.663.882 2.296 1.496l-.988 1.376a.868.868 0 0 1-.222.231c-.092.069-.217.097-.383.097a.76.76 0 0 1-.342-.092 5.915 5.915 0 0 1-.383-.231c-.139-.092-.3-.189-.48-.3-.185-.111-.397-.212-.637-.305s-.522-.171-.841-.236a6.077 6.077 0 0 0-1.109-.092 4.97 4.97 0 0 0-1.954.379 4.203 4.203 0 0 0-1.524 1.104c-.425.48-.757 1.067-.993 1.76-.236.693-.351 1.483-.351 2.374s.129 1.69.383 2.388c.249.697.591 1.284 1.025 1.76.434.476.942.841 1.529 1.095a4.721 4.721 0 0 0 1.894.383c.406 0 .771-.023 1.099-.065.328-.042.628-.115.901-.208a4.33 4.33 0 0 0 .781-.37c.245-.152.49-.333.73-.554.074-.069.152-.12.231-.162a.537.537 0 0 1 .254-.06l-.007-.004zm12.041-2.259l-1.94-5.293a10.729 10.729 0 0 1-.296-.836c-.102-.323-.208-.67-.309-1.048-.097.374-.194.725-.296 1.053-.102.323-.203.61-.296.854l-1.926 5.275h5.062v-.005zm5.228 6.009h-2.291a.99.99 0 0 1-.628-.194 1.22 1.22 0 0 1-.365-.476l-1.187-3.247h-6.596l-1.187 3.247c-.06.171-.176.323-.342.462a.96.96 0 0 1-.628.208h-2.314l6.263-15.916h3.016l6.254 15.916h.005zm11.219-13.482v-2.429h-12.558v2.429h4.799v13.482h2.965v-13.482h4.799-.005zm5.062-.078v4.416h5.57v2.277h-5.57v4.503h7.067v2.365h-10.037V188.77h10.037v2.356h-7.067z" fill="#fff"/><path d="M325.693 406.775h18.494v51.121l-9.353-8.716-9.141 8.716v-51.121z" fill="#fbb429"/><path d="M334.939 361.95a4.714 4.714 0 0 1 4.711 4.66l.402.079a4.711 4.711 0 0 1 6.138-2.499 4.708 4.708 0 0 1 2.568 6.106l.342.226a4.71 4.71 0 0 1 6.628.037 4.71 4.71 0 0 1 .032 6.628l.226.342a4.712 4.712 0 0 1 6.111 2.568 4.713 4.713 0 0 1-2.503 6.134l.079.402a4.711 4.711 0 1 1 0 9.422l-.079.402a4.709 4.709 0 1 1-3.603 8.702l-.226.342a4.71 4.71 0 0 1-.037 6.628 4.709 4.709 0 0 1-6.623.037l-.342.226a4.71 4.71 0 0 1-2.568 6.111 4.71 4.71 0 0 1-6.134-2.499l-.402.079a4.711 4.711 0 1 1-9.422 0l-.402-.079a4.711 4.711 0 0 1-8.702-3.612l-.342-.226a4.71 4.71 0 0 1-6.628-.037 4.715 4.715 0 0 1-.037-6.628l-.226-.342a4.712 4.712 0 0 1-6.111-2.568 4.709 4.709 0 0 1 2.503-6.134l-.079-.402a4.712 4.712 0 0 1 0-9.422l.079-.402a4.712 4.712 0 0 1-2.503-6.134 4.712 4.712 0 0 1 6.111-2.568l.226-.342a4.71 4.71 0 0 1 .037-6.628 4.709 4.709 0 0 1 6.623-.037l.342-.226a4.716 4.716 0 0 1 2.568-6.111 4.709 4.709 0 0 1 6.134 2.503l.402-.079a4.712 4.712 0 0 1 4.711-4.66h-.004z" fill="#ff5b61"/><path d="M334.939 369.317c12.166 0 22.027 9.861 22.027 22.022 0 12.166-9.861 22.027-22.027 22.027s-22.027-9.861-22.027-22.027c.001-12.166 9.862-22.022 22.027-22.022z" fill="#fff"/><path d="M223.276 46.65c-3.39-2.697-7.667-4.79-11.441-6.642-2.254-1.104-4.379-2.148-5.931-3.136-3.603-2.296-6.231-8.175-5.857-13.103.162-2.111.956-4.887 3.852-6.166 3.076-1.358 5.395 1.09 6.157 1.894 1.603 1.69 3.002 4.152 3.843 6.753.637 1.963.739 3.358.674 4.092a2.396 2.396 0 0 0-2.61 1.603 2.4 2.4 0 0 0 1.492 3.048c1.977.674 3.797.18 4.896-1.316 1.635 5.048 3.667 9.718 6.032 13.916-.35-.315-.714-.629-1.107-.943zM256 133.501h20.087v-2.106c-5.903-.379-13.616-13.584-14.078-20.724l-2.656-40.881c8.854-1.095 16.942-6.489 23.422-14.859a11.972 11.972 0 0 0-.374 3.081c.018 3.275 1.815 6.069 4.804 7.469a9.188 9.188 0 0 0 3.894.868c2.005 0 3.968-.66 5.524-1.949 3.473-2.859 3.852-6.439 2.429-8.494-1.206-1.741-3.39-2.175-5.325-1.067a2.393 2.393 0 0 0-.882 3.275 2.393 2.393 0 0 0 1.94 1.201c-.208.374-.577.85-1.215 1.376-1.141.938-2.878 1.113-4.332.434-.757-.356-2.028-1.233-2.042-3.15-.014-2.707 1.418-5.113 4.513-7.575 2.984-2.374 7.011-4.346 10.563-6.083 2.379-1.169 4.623-2.268 6.402-3.399 2.494-1.589 4.688-4.286 6.185-7.593 1.455-3.224 2.125-6.748 1.88-9.926-.365-4.831-2.744-8.448-6.697-10.194-4.268-1.884-8.771-.471-12.364 3.875-.129.157-.259.319-.383.48.605-4.443.933-9.044.947-13.769h-84.486c.018 4.72.346 9.325.951 13.769-.129-.162-.254-.323-.383-.48-3.593-4.346-8.101-5.755-12.364-3.875-3.954 1.746-6.332 5.362-6.697 10.194-.245 3.178.425 6.702 1.88 9.926 1.492 3.307 3.69 6.004 6.185 7.593 1.778 1.132 4.023 2.231 6.402 3.399 3.552 1.741 7.579 3.713 10.559 6.083 3.095 2.462 4.531 4.873 4.517 7.575-.014 1.912-1.284 2.794-2.042 3.15-1.45.679-3.192.503-4.328-.434-.637-.527-1.007-1.002-1.215-1.376a2.4 2.4 0 0 0 1.063-4.476c-1.931-1.109-4.12-.674-5.325 1.067-1.423 2.051-1.044 5.63 2.429 8.494 1.557 1.284 3.524 1.949 5.529 1.949a9.208 9.208 0 0 0 3.894-.868c2.988-1.399 4.79-4.194 4.804-7.469a12.016 12.016 0 0 0-.374-3.081c6.48 8.369 14.568 13.759 23.422 14.859L250 110.67c-.462 7.141-8.175 20.346-14.078 20.724v2.106h20.087H256zm32.724-86.851c-.388.309-.757.624-1.109.942 2.365-4.198 4.397-8.873 6.032-13.916 1.099 1.496 2.919 1.991 4.896 1.316a2.398 2.398 0 0 0 1.492-3.048 2.4 2.4 0 0 0-2.61-1.603c-.065-.734.037-2.129.674-4.092.841-2.6 2.24-5.062 3.843-6.753.762-.804 3.076-3.252 6.152-1.894 2.891 1.279 3.69 4.055 3.852 6.166.374 4.928-2.254 10.808-5.857 13.103-1.552.988-3.677 2.032-5.931 3.136-3.774 1.848-8.051 3.944-11.441 6.642h.007z" fill="#fbb429"/><path d="M289.398 3.801s8.198 55.481-31.551 65.282l2.439 41.514c-.097 11.043 8.974 22.904 15.805 22.904v-2.106c-5.903-.379-13.616-13.584-14.078-20.724l-2.656-40.881c8.803-1.09 16.849-6.425 23.311-14.715a.988.988 0 0 1 .111-.143s3.09-3.63 5.39-7.82c-.189.157-.37.319-.545.48a68.884 68.884 0 0 0 1.935-3.7c2.074-4.924 4.097-10.217 4.097-10.217 1.219-3.898 2.85-10.429 3.644-16.106.605-4.443.933-9.044.947-13.769h-8.849z" fill="#f5a209"/><path d="M284.941 170.216h-57.878v-32.461a4.256 4.256 0 0 1 4.249-4.249h49.379a4.256 4.256 0 0 1 4.249 4.249v32.461z" fill="#666"/><path d="M290.304 176.774h-68.607v-5.487a3.862 3.862 0 0 1 3.861-3.861h60.885a3.862 3.862 0 0 1 3.861 3.861v5.487z" fill="#807d7d"/><path d="M299.278 3.801h-86.56a1.88 1.88 0 0 1-1.88-1.88v-.037a1.88 1.88 0 0 1 1.88-1.88h86.56c1.035 0 1.88.845 1.88 1.88v.037c0 1.04-.841 1.88-1.88 1.88z" fill="#fbb429"/><g fill="#807d7d"><path d="M242.162 145.076h27.468v2.614h-27.468v-2.614zM242.162 151.149h27.468v2.614h-27.468v-2.614zM247.783 157.218H264v2.614h-16.216v-2.614z"/></g></svg>