<svg xmlns="http://www.w3.org/2000/svg" viewBox="0 0 512 512"><path d="M256 511.999c140.998 0 256-115.001 256-256C512 115.001 396.998.001 256 .001c-140.999 0-256 115-256 255.998 0 140.999 115.001 256 256 256z" fill="#1a91a1"/><g fill="#fff"><path d="M117.704 306.051c1.84 0 3.613.288 5.276.817 3.925-6.569 11.1-10.966 19.307-10.966 12.267 0 22.238 9.828 22.469 22.04.263-.017.528-.026.797-.026 6.335 0 11.468 5.133 11.468 11.466 0 6.336-5.133 11.469-11.468 11.469a11.45 11.45 0 0 1-9.349-4.826 22.38 22.38 0 0 1-13.918 4.826c-4.92 0-9.47-1.583-13.171-4.265a17.337 17.337 0 0 1-11.411 4.265c-9.609 0-17.399-7.792-17.399-17.401-.001-9.61 7.79-17.399 17.399-17.399zM432.725 214.652c-2.451 0-4.812.379-7.029 1.084-5.227-8.747-14.79-14.607-25.72-14.607-16.343 0-29.625 13.096-29.933 29.364a14.937 14.937 0 0 0-1.061-.037c-8.44 0-15.278 6.838-15.278 15.276 0 8.439 6.838 15.277 15.278 15.277 5.139 0 9.686-2.538 12.453-6.429a29.812 29.812 0 0 0 18.541 6.429 29.794 29.794 0 0 0 17.547-5.682 23.088 23.088 0 0 0 15.202 5.682c12.804 0 23.181-10.378 23.181-23.18 0-12.8-10.378-23.177-23.181-23.177z"/></g><path d="M244.628 42.661l21.268 45.601c-2.717 31.013-36.987 67.167-78.559 83.532-39.615 15.594-86.172 12.627-106.514-6.706l-18.786-45.514 99.479-7.91 83.112-69.003z" fill="#666"/><path d="M1.63 126.833l-.494-1.218 120.1-112.873 164.787-3.13.495 1.219-118.457 116.91-166.431-.908z" fill="#c8cacc"/><path d="M68.739 253.754l-8.07 51.66c-.13.837 2.709 1.979 4.063.298 1.778 2.132 4.135 1.258 4.841-.215.892 1.46 2.997 2.267 4.526.085 1.354 1.68 4.379.51 4.156-.897L70.24 253.71c-.204-.761-1.395-.63-1.501.044z" fill="#ff816f"/><path d="M1.136 125.617l119.419-114.55 165.47-1.455-119.422 114.545-165.467 1.46z" fill="#807d7d"/><path d="M144.319 66.648a1.756 1.756 0 1 1 2.2 2.739l-80.396 64.851 4.952 119.514a1.756 1.756 0 0 1-.967 2.29 1.76 1.76 0 0 1-2.293-.964l-5.442-120.723a1.758 1.758 0 0 1 .528-2.033l81.418-65.674z" fill="#fff"/><path d="M69.466 245.653a7.996 7.996 0 1 1 0 15.992 7.995 7.995 0 0 1-7.997-7.997 7.994 7.994 0 0 1 7.997-7.995z" fill="#ffba1b"/><path d="M75.948 251.61a7.722 7.722 0 0 1-5.102 7.268 7.73 7.73 0 0 1-2.619.454c-.05 0-.1 0-.15-.002a7.718 7.718 0 0 1-6.298-3.468 8.01 8.01 0 0 0 5.966 5.597 8.053 8.053 0 0 0 3.503-.013 7.995 7.995 0 0 0 6.214-7.797 7.975 7.975 0 0 0-2.488-5.798 7.696 7.696 0 0 1 .974 3.759z" fill="#f5a209"/><path d="M202.636 236.836l40.398-25.226c5.653.114 7.34 9.409 3.135 14.662l-35.707 23.233-7.826-12.669z" fill="#f0b97d"/><path d="M215.673 195.236l-29.906 46.532 19.881 63.048 10.638-39.647-8.404-25.938 18.74-33.56c3.892-8.591-5.431-17.58-10.949-10.435z" fill="#fed198"/><path d="M283.508 272.295l-3.383 21.591-1.328 8.482-34.467-12.16 40.934 61.078 10.278 83.343c1.404-1.159-.95-76.107.263-77.889 4.649-6.844 7.878-18.378 9.468-35.282l-.256-28.937-.256-15.365 3.492-16.445c-8.68-4.799-21.359 0-24.745 11.584z" fill="#f0b97d"/><g fill="#fed198"><path d="M204.9 309.411l12.034-57.869 39.562-16.005c4.821 2.682 6.602 5.384 2.712 13.525l-19.997 10.417 5.119 30.73c35.356 19.036 46.67 41.495 44.473 69.407 1.221 24.494 5.518 50.523 6.739 75.014l-59.405 1.537 13.314-64.016-44.551-62.74zM186.843 188.811l.471 50.549 13.405-20.858-1.584-26.363c0 .001-4.483-10.498-12.292-3.328z"/></g><path d="M216.385 420.192h104.889l2.112 82.821c-21.474 5.845-44.063 8.982-67.388 8.982a257.87 257.87 0 0 1-41.865-3.425l2.252-88.378z" fill="#20d0c2"/><g fill="#fff"><path d="M227.128 420.192h83.403v-20.139h-83.403v20.139zM187.33 196.832l-.186-7.799s3.56-.849 3.851.948c.292 1.795.249 6.78.249 6.78l-3.914.071zM212.979 200.542l4.624-6.284s3.336 1.506 2.467 3.106c-.869 1.598-3.951 5.517-3.951 5.517l-3.14-2.339zM249.293 239.651l7.049-3.346s2.224 2.907.704 3.904c-1.523.998-6.094 2.988-6.094 2.988l-1.659-3.546zM249.511 168.874L403.72 71.011c18.44-5.797 32.692 31.159 21.184 37.548l-150.015 98.496c-8.519 5.609-20.998-7.306-25.12-21.796-2.188-7.696-.015-7.94 8.077-13.422l-8.335-2.963z"/></g><path d="M350.719 104.665c12.866-1.014 28.44 26.558 24.191 36.719l-20.734 13.613c.98-14.803-13.19-35.902-26.258-35.853l22.801-14.479z" fill="#ffba1b"/><path d="M404.358 155.472l-29.447-14.087-20.734 13.613 23.874 17.712 5.792-15.03 20.515-2.208z" fill="#f5a209"/><path d="M256.855 172.541l.991-.705c7.164-.16 24.715 21.681 12.782 30.099-8.49 5.988-17.435-13.338-18.612-20.147 3.364-3.783 10.434 7.372 9.109 7.958l-2.655 1.176s1.28 5.29 4.059 5.048l9.966-5.904c0 .001-4.404-15.454-15.64-17.525z" fill="#dfe1e3"/></svg>