<?xml version="1.0" encoding="iso-8859-1"?>
<!-- Generator: Adobe Illustrator 19.0.0, SVG Export Plug-In . SVG Version: 6.00 Build 0)  -->
<svg version="1.1" id="Layer_1" xmlns="http://www.w3.org/2000/svg" xmlns:xlink="http://www.w3.org/1999/xlink" x="0px" y="0px"
	 viewBox="0 0 512 512" style="enable-background:new 0 0 512 512;" xml:space="preserve">
<path style="fill:#5DDDD3;" d="M256,0c141.385,0,256,114.615,256,256S397.385,512,256,512S0,397.385,0,256S114.615,0,256,0z"/>
<path style="fill:#20D0C2;" d="M409.389,361.363h74.339c-0.342,26.692-0.965,79.609-37.172,80.778
	c-20.443,0-37.172-16.725-37.172-37.167v-43.61H409.389z"/>
<path style="fill:#FF5B61;" d="M100.371,82.69v322.284c0,20.396,16.725,37.167,37.172,37.167h309.023
	c-20.443,0-37.172-16.725-37.172-37.167V80.976L100.371,82.69z"/>
<path style="fill:#FFFFFF;" d="M114.375,96.62v308.354c0,12.688,10.475,23.163,23.163,23.163h263.413
	c-3.556-6.96-5.566-14.835-5.566-23.163V95.059L114.375,96.62z"/>
<path style="fill:#20D0C2;" d="M198.847,237.239h113.705v10.706H198.847V237.239z"/>
<path style="fill:#C3CCCF;" d="M137.307,259.907h236.791v4.628H137.307V259.907z M137.307,309.596L137.307,309.596h162.331v4.628
	H137.307V309.596z M137.307,297.176L137.307,297.176h236.791v4.628H137.307V297.176z M137.307,284.752L137.307,284.752h236.791
	v4.628H137.307V284.752z M137.307,272.332L137.307,272.332h236.791v4.628H137.307V272.332z"/>
<g>
	<path style="fill:#20D0C2;" d="M304.922,331.845h60.035v5.704h-60.035V331.845z"/>
	<path style="fill:#20D0C2;" d="M171.518,226.851v-10.014h-12.009L171.518,226.851z"/>
	<path style="fill:#20D0C2;" d="M339.886,216.837v10.014l12.013-10.014H339.886z"/>
	<path style="fill:#20D0C2;" d="M351.9,216.837l-12.013,10.014h48.044l-18.018-20.032l18.018-20.036H351.9V216.837z"/>
</g>
<path style="fill:#5DDDD3;" d="M339.886,216.837H351.9v-30.054V176.77h-192.39v10.013v30.054h12.009H339.886z"/>
<path style="fill:#20D0C2;" d="M159.509,216.837v-30.054h-36.036l18.018,20.036l-18.018,20.032h48.044L159.509,216.837z"/>
<path style="fill:#FFFFFF;" d="M197.305,200.935c0.162,0,0.305,0.06,0.43,0.185l1.164,1.266c-0.647,0.799-1.436,1.413-2.383,1.838
	c-0.942,0.425-2.078,0.642-3.399,0.642c-1.182,0-2.245-0.203-3.187-0.605c-0.942-0.406-1.751-0.965-2.416-1.686
	c-0.67-0.721-1.178-1.58-1.533-2.573c-0.356-0.998-0.536-2.088-0.536-3.27c0-1.196,0.189-2.296,0.573-3.289
	c0.379-0.998,0.919-1.852,1.612-2.568c0.693-0.716,1.52-1.279,2.48-1.681c0.961-0.397,2.028-0.596,3.192-0.596
	c1.159,0,2.189,0.189,3.09,0.573c0.901,0.383,1.663,0.882,2.296,1.496l-0.988,1.376c-0.06,0.088-0.129,0.166-0.222,0.231
	c-0.092,0.069-0.222,0.097-0.383,0.097c-0.111,0-0.222-0.032-0.342-0.092c-0.115-0.065-0.245-0.139-0.383-0.231s-0.3-0.189-0.48-0.3
	c-0.185-0.111-0.397-0.212-0.637-0.305c-0.245-0.092-0.522-0.171-0.841-0.236c-0.319-0.06-0.693-0.092-1.109-0.092
	c-0.711,0-1.363,0.129-1.954,0.379c-0.591,0.254-1.104,0.619-1.524,1.104c-0.425,0.48-0.757,1.067-0.993,1.76
	c-0.236,0.693-0.351,1.483-0.351,2.374c0,0.891,0.129,1.69,0.383,2.388c0.249,0.697,0.591,1.284,1.025,1.76
	c0.434,0.476,0.942,0.841,1.529,1.095c0.587,0.254,1.219,0.383,1.894,0.383c0.406,0,0.771-0.023,1.099-0.065
	c0.328-0.042,0.628-0.115,0.905-0.208c0.273-0.097,0.536-0.222,0.781-0.37c0.245-0.152,0.49-0.333,0.73-0.554
	c0.074-0.069,0.152-0.12,0.231-0.162c0.079-0.042,0.166-0.06,0.254-0.06L197.305,200.935z M203.91,191.125L203.91,191.125v4.416
	h5.57v2.277h-5.57v4.503h7.067v2.365H200.94v-15.916h10.037v2.356H203.91z M218.408,196.344L218.408,196.344
	c0.559,0,1.044-0.074,1.46-0.212c0.416-0.139,0.757-0.333,1.021-0.577c0.268-0.245,0.466-0.536,0.6-0.873s0.199-0.707,0.199-1.113
	c0-0.808-0.263-1.427-0.799-1.861c-0.531-0.434-1.344-0.651-2.439-0.651h-1.894v5.284h1.852V196.344z M226.024,204.685
	L226.024,204.685h-2.674c-0.508,0-0.873-0.199-1.099-0.591l-3.349-5.099c-0.125-0.189-0.259-0.328-0.411-0.406
	c-0.152-0.079-0.374-0.12-0.67-0.12h-1.266v6.217h-2.961v-15.916h4.854c1.076,0,2.005,0.111,2.781,0.333
	c0.776,0.226,1.409,0.54,1.903,0.947c0.494,0.402,0.859,0.882,1.095,1.446c0.236,0.559,0.351,1.182,0.351,1.857
	c0,0.536-0.079,1.044-0.236,1.52c-0.157,0.476-0.383,0.91-0.684,1.298c-0.296,0.388-0.665,0.73-1.099,1.025
	c-0.434,0.291-0.938,0.522-1.496,0.693c0.189,0.106,0.37,0.24,0.527,0.388c0.162,0.152,0.309,0.333,0.439,0.536l3.986,5.875H226.024
	z M238.449,191.203L238.449,191.203v-2.429H225.89v2.429h4.799v13.482h2.961v-13.482H238.449z M243.515,204.685L243.515,204.685
	h-2.974v-15.916h2.974V204.685z M250.042,191.125L250.042,191.125v4.711h5.963v2.369h-5.963v6.48h-2.974v-15.916h10.037v2.356
	h-7.067H250.042z M262.503,204.685L262.503,204.685h-2.97v-15.916h2.97V204.685z M276.988,200.935L276.988,200.935
	c0.162,0,0.305,0.06,0.43,0.185l1.164,1.266c-0.647,0.799-1.436,1.413-2.383,1.838c-0.942,0.425-2.078,0.642-3.395,0.642
	c-1.182,0-2.245-0.203-3.187-0.605c-0.942-0.406-1.75-0.965-2.416-1.686c-0.67-0.721-1.178-1.58-1.533-2.573
	c-0.356-0.998-0.536-2.088-0.536-3.27c0-1.196,0.189-2.296,0.573-3.289c0.379-0.998,0.919-1.852,1.612-2.568
	c0.693-0.716,1.52-1.279,2.48-1.681c0.961-0.397,2.028-0.596,3.192-0.596c1.159,0,2.189,0.189,3.09,0.573
	c0.901,0.383,1.663,0.882,2.296,1.496l-0.988,1.376c-0.06,0.088-0.129,0.166-0.222,0.231c-0.092,0.069-0.217,0.097-0.383,0.097
	c-0.111,0-0.222-0.032-0.342-0.092c-0.115-0.065-0.245-0.139-0.383-0.231c-0.139-0.092-0.3-0.189-0.48-0.3
	c-0.185-0.111-0.397-0.212-0.637-0.305s-0.522-0.171-0.841-0.236c-0.319-0.06-0.693-0.092-1.109-0.092
	c-0.711,0-1.363,0.129-1.954,0.379c-0.591,0.254-1.099,0.619-1.524,1.104c-0.425,0.48-0.757,1.067-0.993,1.76
	c-0.236,0.693-0.351,1.483-0.351,2.374c0,0.891,0.129,1.69,0.383,2.388c0.249,0.697,0.591,1.284,1.025,1.76
	c0.434,0.476,0.942,0.841,1.529,1.095c0.587,0.254,1.219,0.383,1.894,0.383c0.406,0,0.771-0.023,1.099-0.065
	c0.328-0.042,0.628-0.115,0.901-0.208c0.272-0.097,0.536-0.222,0.781-0.37c0.245-0.152,0.49-0.333,0.73-0.554
	c0.074-0.069,0.152-0.12,0.231-0.162c0.079-0.042,0.166-0.06,0.254-0.06L276.988,200.935z M289.029,198.676L289.029,198.676
	l-1.94-5.293c-0.097-0.236-0.194-0.513-0.296-0.836c-0.102-0.323-0.208-0.67-0.309-1.048c-0.097,0.374-0.194,0.725-0.296,1.053
	c-0.102,0.323-0.203,0.61-0.296,0.854l-1.926,5.275h5.062V198.676z M294.257,204.685L294.257,204.685h-2.291
	c-0.254,0-0.462-0.065-0.628-0.194c-0.162-0.129-0.282-0.286-0.365-0.476l-1.187-3.247h-6.596l-1.187,3.247
	c-0.06,0.171-0.176,0.323-0.342,0.462c-0.171,0.139-0.379,0.208-0.628,0.208h-2.314l6.263-15.916h3.016l6.254,15.916H294.257z
	 M305.476,191.203L305.476,191.203v-2.429h-12.558v2.429h4.799v13.482h2.965v-13.482h4.799H305.476z M310.538,191.125
	L310.538,191.125v4.416h5.57v2.277h-5.57v4.503h7.067v2.365h-10.037v-15.916h10.037v2.356H310.538z"/>
<path style="fill:#FBB429;" d="M325.693,406.775h18.494v51.121l-9.353-8.716l-9.141,8.716V406.775z"/>
<path style="fill:#FF5B61;" d="M334.939,361.95c2.582,0,4.683,2.083,4.711,4.66l0.402,0.079c1.012-2.369,3.75-3.492,6.138-2.499
	c2.388,0.988,3.529,3.713,2.568,6.106l0.342,0.226c1.843-1.806,4.799-1.792,6.628,0.037c1.829,1.824,1.838,4.785,0.032,6.628
	l0.226,0.342c2.393-0.965,5.118,0.18,6.111,2.568c0.988,2.388-0.134,5.122-2.503,6.134l0.079,0.402
	c2.577,0.028,4.66,2.129,4.66,4.711c0,2.587-2.083,4.683-4.66,4.711l-0.079,0.402c2.369,1.012,3.492,3.746,2.503,6.134
	c-0.988,2.388-3.714,3.529-6.106,2.568l-0.226,0.342c1.806,1.843,1.792,4.799-0.037,6.628c-1.824,1.829-4.785,1.838-6.623,0.037
	l-0.342,0.226c0.965,2.393-0.18,5.122-2.568,6.111c-2.388,0.988-5.122-0.129-6.134-2.499l-0.402,0.079
	c-0.028,2.577-2.129,4.66-4.711,4.66c-2.587,0-4.683-2.083-4.711-4.66l-0.402-0.079c-1.012,2.369-3.746,3.487-6.134,2.499
	c-2.388-0.988-3.529-3.718-2.568-6.111l-0.342-0.226c-1.838,1.806-4.799,1.792-6.628-0.037c-1.829-1.829-1.838-4.785-0.037-6.628
	l-0.226-0.342c-2.393,0.965-5.118-0.18-6.111-2.568c-0.988-2.388,0.129-5.122,2.503-6.134l-0.079-0.402
	c-2.577-0.028-4.66-2.125-4.66-4.711c0-2.582,2.083-4.683,4.66-4.711l0.079-0.402c-2.369-1.012-3.492-3.746-2.503-6.134
	c0.988-2.388,3.713-3.529,6.111-2.568l0.226-0.342c-1.806-1.843-1.792-4.799,0.037-6.628c1.829-1.829,4.785-1.838,6.623-0.037
	l0.342-0.226c-0.961-2.393,0.18-5.118,2.568-6.111c2.388-0.988,5.122,0.129,6.134,2.503l0.402-0.079
	c0.028-2.577,2.125-4.66,4.711-4.66H334.939z"/>
<path style="fill:#FFFFFF;" d="M334.939,369.317c12.166,0,22.027,9.861,22.027,22.022c0,12.166-9.861,22.027-22.027,22.027
	c-12.166,0-22.027-9.861-22.027-22.027C312.913,379.173,322.774,369.317,334.939,369.317z"/>
<path style="fill:#FBB429;" d="M223.276,46.65c-3.39-2.697-7.667-4.79-11.441-6.642c-2.254-1.104-4.379-2.148-5.931-3.136
	c-3.603-2.296-6.231-8.175-5.857-13.103c0.162-2.111,0.956-4.887,3.852-6.166c3.076-1.358,5.395,1.09,6.157,1.894
	c1.603,1.69,3.002,4.152,3.843,6.753c0.637,1.963,0.739,3.358,0.674,4.092c-1.122-0.162-2.231,0.49-2.61,1.603
	c-0.43,1.256,0.24,2.619,1.492,3.048c1.977,0.674,3.797,0.18,4.896-1.316c1.635,5.048,3.667,9.718,6.032,13.916
	C224.033,47.278,223.669,46.964,223.276,46.65z M256,133.501L256,133.501h20.087v-2.106c-5.903-0.379-13.616-13.584-14.078-20.724
	l-2.656-40.881c8.854-1.095,16.942-6.489,23.422-14.859c-0.259,0.998-0.379,2.023-0.374,3.081c0.018,3.275,1.815,6.069,4.804,7.469
	c1.242,0.582,2.577,0.868,3.894,0.868c2.005,0,3.968-0.66,5.524-1.949c3.473-2.859,3.852-6.439,2.429-8.494
	c-1.206-1.741-3.39-2.175-5.325-1.067c-1.15,0.66-1.547,2.129-0.882,3.275c0.42,0.73,1.159,1.155,1.94,1.201
	c-0.208,0.374-0.577,0.85-1.215,1.376c-1.141,0.938-2.878,1.113-4.332,0.434c-0.757-0.356-2.028-1.233-2.042-3.15
	c-0.014-2.707,1.418-5.113,4.513-7.575c2.984-2.374,7.011-4.346,10.563-6.083c2.379-1.169,4.623-2.268,6.402-3.399
	c2.494-1.589,4.688-4.286,6.185-7.593c1.455-3.224,2.125-6.748,1.88-9.926c-0.365-4.831-2.744-8.448-6.697-10.194
	c-4.268-1.884-8.771-0.471-12.364,3.875c-0.129,0.157-0.259,0.319-0.383,0.48c0.605-4.443,0.933-9.044,0.947-13.769h-42.243h-42.243
	c0.018,4.72,0.346,9.325,0.951,13.769c-0.129-0.162-0.254-0.323-0.383-0.48c-3.593-4.346-8.101-5.755-12.364-3.875
	c-3.954,1.746-6.332,5.362-6.697,10.194c-0.245,3.178,0.425,6.702,1.88,9.926c1.492,3.307,3.69,6.004,6.185,7.593
	c1.778,1.132,4.023,2.231,6.402,3.399c3.552,1.741,7.579,3.713,10.559,6.083c3.095,2.462,4.531,4.873,4.517,7.575
	c-0.014,1.912-1.284,2.794-2.042,3.15c-1.45,0.679-3.192,0.503-4.328-0.434c-0.637-0.527-1.007-1.002-1.215-1.376
	c0.781-0.046,1.524-0.471,1.945-1.201c0.66-1.15,0.263-2.619-0.882-3.275c-1.931-1.109-4.12-0.674-5.325,1.067
	c-1.423,2.051-1.044,5.63,2.429,8.494c1.557,1.284,3.524,1.949,5.529,1.949c1.316,0,2.647-0.286,3.894-0.868
	c2.988-1.399,4.79-4.194,4.804-7.469c0.009-1.058-0.12-2.083-0.374-3.081c6.48,8.369,14.568,13.759,23.422,14.859L250,110.67
	c-0.462,7.141-8.175,20.346-14.078,20.724v2.106h20.087H256z M288.724,46.65L288.724,46.65c-0.388,0.309-0.757,0.624-1.109,0.942
	c2.365-4.198,4.397-8.873,6.032-13.916c1.099,1.496,2.919,1.991,4.896,1.316c1.256-0.43,1.921-1.792,1.492-3.048
	c-0.379-1.113-1.492-1.764-2.61-1.603c-0.065-0.734,0.037-2.129,0.674-4.092c0.841-2.6,2.24-5.062,3.843-6.753
	c0.762-0.804,3.076-3.252,6.152-1.894c2.891,1.279,3.69,4.055,3.852,6.166c0.374,4.928-2.254,10.808-5.857,13.103
	c-1.552,0.988-3.677,2.032-5.931,3.136c-3.774,1.848-8.051,3.944-11.441,6.642H288.724z"/>
<path style="fill:#F5A209;" d="M289.398,3.801c0,0,8.198,55.481-31.551,65.282l2.439,41.514
	c-0.097,11.043,8.974,22.904,15.805,22.904v-2.106c-5.903-0.379-13.616-13.584-14.078-20.724l-2.656-40.881
	c8.803-1.09,16.849-6.425,23.311-14.715c0.037-0.055,0.074-0.106,0.111-0.143c0,0,3.09-3.63,5.39-7.82
	c-0.189,0.157-0.37,0.319-0.545,0.48c0.67-1.196,1.321-2.429,1.935-3.7c2.074-4.924,4.097-10.217,4.097-10.217
	c1.219-3.898,2.85-10.429,3.644-16.106c0.605-4.443,0.933-9.044,0.947-13.769h-8.845H289.398z"/>
<path style="fill:#666666;" d="M284.941,170.216h-57.878v-32.461c0-2.342,1.908-4.249,4.249-4.249h49.379
	c2.342,0,4.249,1.908,4.249,4.249V170.216z"/>
<path style="fill:#807D7D;" d="M290.304,176.774h-68.607v-5.487c0-2.134,1.732-3.861,3.861-3.861h60.885
	c2.129,0,3.861,1.727,3.861,3.861V176.774z"/>
<path style="fill:#FBB429;" d="M299.278,3.801h-86.56c-1.039,0-1.88-0.841-1.88-1.88V1.884c0-1.039,0.841-1.88,1.88-1.88h86.56
	c1.035,0,1.88,0.845,1.88,1.88v0.037C301.158,2.961,300.317,3.801,299.278,3.801z"/>
<g>
	<path style="fill:#807D7D;" d="M242.162,145.076h27.468v2.614h-27.468V145.076z"/>
	<path style="fill:#807D7D;" d="M242.162,151.149h27.468v2.614h-27.468V151.149z"/>
	<path style="fill:#807D7D;" d="M247.783,157.218H264v2.614h-16.216V157.218z"/>
</g>
<g>
</g>
<g>
</g>
<g>
</g>
<g>
</g>
<g>
</g>
<g>
</g>
<g>
</g>
<g>
</g>
<g>
</g>
<g>
</g>
<g>
</g>
<g>
</g>
<g>
</g>
<g>
</g>
<g>
</g>
</svg>
