<?xml version="1.0" encoding="utf-8"?>
<!-- Generator: Adobe Illustrator 22.1.0, SVG Export Plug-In . SVG Version: 6.00 Build 0)  -->
<svg version="1.1" id="Layer_1" xmlns="http://www.w3.org/2000/svg" xmlns:xlink="http://www.w3.org/1999/xlink" x="0px" y="0px"
	 viewBox="0 0 442 246" style="enable-background:new 0 0 442 246;" xml:space="preserve">
<style type="text/css">
	.st0{fill:#1F3B71;}
	.st1{font-family:'Montserrat-Regular';}
	.st2{font-size:18px;}
	.st3{fill:none;stroke:#1F3B71;stroke-width:2.5;stroke-miterlimit:10;}
</style>
<g>
	<path class="st0" d="M196.8,32.6c6.3-7.2,15.5-11.8,25.8-11.8s19.5,4.6,25.8,11.8h3.2c-6.7-8.7-17.2-14.2-29-14.2
		s-22.3,5.6-29,14.2H196.8z"/>
	<path class="st0" d="M248.4,77.6c-6.3,7.2-15.5,11.8-25.8,11.8s-19.5-4.6-25.8-11.8h-3.2c6.7,8.7,17.2,14.2,29,14.2
		s22.3-5.6,29-14.2H248.4z"/>
</g>
<text transform="matrix(1 0 0 1 167.1098 60.0565)" class="st0 st1 st2">Hovedstyret</text>
<g>
	<path class="st0" d="M67.7,204c-4.8,7.7-13.3,12.9-23.1,12.9s-18.3-5.2-23.1-12.9h-2.9c5,9.2,14.8,15.4,26,15.4s20.9-6.2,26-15.4
		H67.7z"/>
	<path class="st0" d="M21.5,175.6c4.8-7.7,13.3-12.9,23.1-12.9s18.3,5.2,23.1,12.9h2.9c-5-9.2-14.8-15.4-26-15.4s-20.9,6.2-26,15.4
		H21.5z"/>
</g>
<text transform="matrix(1 0 0 1 18.1098 195.8074)" class="st0 st1 st2">NTNU</text>
<g>
	<path class="st0" d="M185.9,204c-4.8,7.7-13.3,12.9-23.1,12.9s-18.3-5.2-23.1-12.9h-2.9c5,9.2,14.8,15.4,26,15.4s20.9-6.2,26-15.4
		H185.9z"/>
	<path class="st0" d="M139.8,175.6c4.8-7.7,13.3-12.9,23.1-12.9s18.3,5.2,23.1,12.9h2.9c-5-9.2-14.8-15.4-26-15.4s-20.9,6.2-26,15.4
		H139.8z"/>
</g>
<text transform="matrix(1 0 0 1 145.3597 195.8071)" class="st0 st1 st2">UiO</text>
<g>
	<path class="st0" d="M259.7,175.6c4.9-7.2,13.1-11.9,22.4-11.9s17.6,4.7,22.4,11.9h3c-5.2-8.6-14.6-14.4-25.4-14.4
		s-20.2,5.8-25.4,14.4H259.7z"/>
	<path class="st0" d="M305.8,204c-4.6,8.3-13.5,13.9-23.7,13.9s-19-5.6-23.7-13.9h-2.8c4.9,9.7,14.9,16.4,26.5,16.4
		s21.6-6.7,26.5-16.4H305.8z"/>
</g>
<text transform="matrix(1 0 0 1 252.6093 195.8074)" class="st0 st1 st2">NMBU</text>
<g>
	<path class="st0" d="M377.5,175.6c4.8-7.7,13.3-12.9,23.1-12.9c9.7,0,18.3,5.2,23.1,12.9h2.9c-5-9.2-14.8-15.4-26-15.4
		s-20.9,6.2-26,15.4H377.5z"/>
	<path class="st0" d="M423.7,204c-4.8,7.7-13.3,12.9-23.1,12.9c-9.8,0-18.3-5.2-23.1-12.9h-2.9c5,9.2,14.8,15.4,26,15.4
		s20.9-6.2,26-15.4H423.7z"/>
</g>
<text transform="matrix(1 0 0 1 384.1093 195.8071)" class="st0 st1 st2">UiB</text>
<line class="st3" x1="223.1" y1="90.6" x2="223.1" y2="134.6"/>
<line class="st3" x1="224.1" y1="134.6" x2="401.6" y2="134.6"/>
<line class="st3" x1="400.6" y1="133.6" x2="400.6" y2="160.5"/>
<line class="st3" x1="282.1" y1="134.6" x2="282.1" y2="162.5"/>
<line class="st3" x1="228.4" y1="134.6" x2="43.6" y2="134.6"/>
<line class="st3" x1="44.6" y1="133.6" x2="44.6" y2="160.5"/>
<line class="st3" x1="162.9" y1="134.6" x2="162.9" y2="161.5"/>
</svg>
