<?xml version="1.0" encoding="utf-8"?>
<!-- Generator: Adobe Illustrator 16.0.0, SVG Export Plug-In . SVG Version: 6.00 Build 0)  -->
<!DOCTYPE svg PUBLIC "-//W3C//DTD SVG 1.1//EN" "http://www.w3.org/Graphics/SVG/1.1/DTD/svg11.dtd">
<svg version="1.1" id="Layer_1" xmlns="http://www.w3.org/2000/svg" xmlns:xlink="http://www.w3.org/1999/xlink" x="0px" y="0px"
	 width="442px" height="246px" viewBox="64.14 143.445 442 246" enable-background="new 64.14 143.445 442 246"
	 xml:space="preserve">
<g>
	<path fill="#1F3B71" d="M260.96,176.001c6.283-7.193,15.512-11.75,25.79-11.75c10.277,0,19.507,4.557,25.789,11.75h3.236
		c-6.729-8.661-17.234-14.25-29.025-14.25c-11.792,0-22.297,5.589-29.026,14.25H260.96z"/>
	<path fill="#1F3B71" d="M312.539,221.001c-6.282,7.193-15.512,11.75-25.789,11.75c-10.278,0-19.507-4.557-25.79-11.75h-3.236
		c6.729,8.661,17.234,14.25,29.026,14.25c11.791,0,22.297-5.589,29.025-14.25H312.539z"/>
</g>
<text transform="matrix(1 0 0 1 235.2498 203.5015)" fill="#1F3B71" font-family="'MSReferenceSansSerif'" font-size="18">Hovedstyret</text>
<g>
	<path fill="#1F3B71" d="M131.833,347.426c-4.774,7.747-13.334,12.923-23.083,12.923s-18.31-5.177-23.083-12.923h-2.893
		c5.03,9.182,14.787,15.423,25.976,15.423c11.188,0,20.943-6.241,25.975-15.423H131.833z"/>
	<path fill="#1F3B71" d="M85.667,319.08c4.773-7.747,13.334-12.923,23.083-12.923s18.308,5.177,23.083,12.923h2.892
		c-5.03-9.183-14.787-15.423-25.975-15.423c-11.188,0-20.944,6.241-25.976,15.423H85.667z"/>
</g>
<text transform="matrix(1 0 0 1 82.2498 339.2524)" fill="#1F3B71" font-family="'MSReferenceSansSerif'" font-size="18">NTNU</text>
<g>
	<path fill="#1F3B71" d="M250.083,347.427c-4.774,7.747-13.334,12.923-23.083,12.923s-18.309-5.176-23.083-12.923h-2.893
		c5.03,9.182,14.787,15.423,25.976,15.423c11.188,0,20.943-6.241,25.975-15.423H250.083z"/>
	<path fill="#1F3B71" d="M203.917,319.08c4.773-7.747,13.334-12.923,23.083-12.923s18.308,5.177,23.083,12.923h2.892
		c-5.03-9.183-14.787-15.423-25.975-15.423c-11.188,0-20.944,6.241-25.976,15.423H203.917z"/>
</g>
<text transform="matrix(1 0 0 1 210.4998 339.2524)" fill="#1F3B71" font-family="'MSReferenceSansSerif'" font-size="18">UiO</text>
<g>
	<path fill="#1F3B71" d="M323.812,319.08c4.877-7.189,13.115-11.923,22.438-11.923c9.322,0,17.562,4.734,22.438,11.923h2.961
		c-5.177-8.632-14.623-14.423-25.398-14.423c-10.776,0-20.224,5.792-25.399,14.423H323.812z"/>
	<path fill="#1F3B71" d="M369.916,347.427c-4.637,8.297-13.505,13.923-23.666,13.923c-10.162,0-19.03-5.625-23.668-13.923h-2.824
		c4.854,9.725,14.903,16.423,26.492,16.423c11.588,0,21.637-6.698,26.491-16.423H369.916z"/>
</g>
<text transform="matrix(1 0 0 1 319.7493 339.2524)" fill="#1F3B71" font-family="'MSReferenceSansSerif'" font-size="18">NMBU</text>
<g>
	<path fill="#1F3B71" d="M441.668,319.08c4.772-7.747,13.334-12.923,23.082-12.923c9.747,0,18.309,5.176,23.081,12.923h2.894
		c-5.031-9.182-14.787-15.423-25.975-15.423c-11.188,0-20.943,6.241-25.976,15.423H441.668z"/>
	<path fill="#1F3B71" d="M487.832,347.426c-4.773,7.747-13.334,12.923-23.082,12.923c-9.75,0-18.31-5.177-23.084-12.923h-2.892
		c5.03,9.183,14.787,15.423,25.976,15.423c11.188,0,20.943-6.241,25.975-15.423H487.832z"/>
</g>
<text transform="matrix(1 0 0 1 448.2493 339.2524)" fill="#1F3B71" font-family="'MSReferenceSansSerif'" font-size="18">UiB</text>
<line fill="none" stroke="#1F3B71" stroke-width="2.5" stroke-miterlimit="10" x1="287.25" y1="234.001" x2="287.25" y2="278.001"/>
<line fill="none" stroke="#1F3B71" stroke-width="2.5" stroke-miterlimit="10" x1="287.25" y1="278.001" x2="464.75" y2="278.001"/>
<line fill="none" stroke="#1F3B71" stroke-width="2.5" stroke-miterlimit="10" x1="464.75" y1="278.001" x2="464.75" y2="304.907"/>
<line fill="none" stroke="#1F3B71" stroke-width="2.5" stroke-miterlimit="10" x1="346.25" y1="278.001" x2="346.25" y2="305.907"/>
<line fill="none" stroke="#1F3B71" stroke-width="2.5" stroke-miterlimit="10" x1="287.25" y1="278.001" x2="108.75" y2="278.001"/>
<line fill="none" stroke="#1F3B71" stroke-width="2.5" stroke-miterlimit="10" x1="108.75" y1="278.001" x2="108.75" y2="304.907"/>
<line fill="none" stroke="#1F3B71" stroke-width="2.5" stroke-miterlimit="10" x1="227" y1="278.001" x2="227" y2="304.907"/>
</svg>
