<?xml version="1.0" encoding="iso-8859-1"?>
<!-- Generator: Adobe Illustrator 19.0.0, SVG Export Plug-In . SVG Version: 6.00 Build 0)  -->
<svg version="1.1" id="Layer_1" xmlns="http://www.w3.org/2000/svg" xmlns:xlink="http://www.w3.org/1999/xlink" x="0px" y="0px"
	 viewBox="0 0 512 512" style="enable-background:new 0 0 512 512;" xml:space="preserve">
<path style="fill:#FF757C;" d="M256.001,512C397,512,512,397,512,255.999C512,115,397,0,256.001,0C115.001,0,0,115,0,255.999
	C0,397,115.001,512,256.001,512z"/>
<path style="fill:#FFFFFF;" d="M241.754,249.021H501.64V51.048H241.754V249.021z"/>
<path style="fill:#C8CACC;" d="M334.229,92.887h147.2v3.937h-147.2V92.887z M334.229,118.726L334.229,118.726h84.725v3.937h-84.725
	V118.726z M334.229,110.112L334.229,110.112h147.2v3.939h-147.2V110.112z M334.229,101.5L334.229,101.5h147.2v3.938h-147.2V101.5z"
	/>
<path style="fill:#D0D1D4;" d="M290.955,154.544H445.91v3.939H290.955V154.544z M290.955,180.383L290.955,180.383h74.528v3.937
	h-74.528V180.383z M290.955,171.771L290.955,171.771h131.336v3.937H290.955V171.771z M290.955,163.159L290.955,163.159h183.067
	v3.936H290.955V163.159z"/>
<g>
	<path style="fill:#FED198;" d="M284.731,123.254c0,0,4.87-10.138,9.787-9.444c4.919,0.697,5.144,0.99,5.144,0.99l24.331-2.659
		c2.765-0.301,3.372,4.035,0.179,4.47l-15.917,2.176c0,0,2.695,1.109,2.587,2.808c-0.106,1.701-1.398,4.291-1.398,4.291
		s1.298,2.959,1.188,3.736c-0.111,0.777-3.265,3.5-3.265,3.5l1.314,2.828l-2.223,2.301c0,0-10.381,1.857-11.915,2.433
		c-1.536,0.574-7.954-1.651-7.954-1.651l-10.13,1.603l-0.5-14.2L284.731,123.254L284.731,123.254z"/>
	<path style="fill:#FED198;" d="M49.078,251.699c0,0,3.586-0.02,5.082,3.177l3.085,6.592c-0.886,4.294-2.976,5.93-2.976,5.93
		c1.467,1.321,1.526,2.812,0.133,5.751c-1.288,2.715-4.661,2.073-6.137,0.753c0,0-2.232,2.22-3.865,1.742
		c-1.636-0.479-2.507-0.822-2.507-0.822s-2.761,1.126-3.494,0.849c-0.733-0.277-2.696-3.957-2.696-3.957l-3.049,0.663l-2.981-2.777
		c0,0,1.391-11.244,1.165-12.867c-0.223-1.621,2.441-6.687,2.441-6.687l0.663-10.23l13.961,2.629L49.078,251.699L49.078,251.699z"/>
</g>
<path style="fill:#15BDB1;" d="M107.383,75.543h32.206l19.728,182.52c-22.269,4.623-44.371,4.695-66.305,0l12.116-170.109
	L107.383,75.543z"/>
<path style="fill:#FFFFFF;" d="M107.383,75.543h32.206l9.481,87.709H99.764l5.364-75.298L107.383,75.543L107.383,75.543z"/>
<path style="fill:#AAB4BD;" d="M107.383,75.543c10.736,0,21.471,0,32.206,0l0.173,1.611l-15.734,17.451l-16.907-17.625
	L107.383,75.543z"/>
<path style="fill:#FBB429;" d="M119.615,95.399c2.501,0.007,5.161-0.046,7.65,0.005c0.284,1.353,0.568,2.707,0.856,4.059
	c3.387,15.437,4.8,35.598,8.018,50.98l-12.068,10.182l-12.092-10.182C114.726,137.37,116.865,108.469,119.615,95.399L119.615,95.399
	z"/>
<path style="fill:#F5A209;" d="M116.03,94.393c1.767-2.106,3.528-4.216,5.29-6.326h4.339c1.762,2.105,3.518,4.215,5.281,6.323
	c-0.861,2.005-1.755,4-2.618,6.005c-3.018-0.137-6.596,0.035-9.67-0.008C117.781,98.389,116.906,96.391,116.03,94.393L116.03,94.393
	z"/>
<path style="fill:#20D0C2;" d="M83.117,238.21l3.579,209.413h29.099l10.479-209.952L83.117,238.21z"/>
<g>
	<path style="fill:#15BDB1;" d="M101.248,447.624h14.549l10.477-209.952l-21.578,0.27L101.248,447.624L101.248,447.624z"/>
	<path style="fill:#15BDB1;" d="M166.611,238.21l-3.58,209.413h-29.099l-10.477-209.952L166.611,238.21z"/>
</g>
<path style="fill:#20D0C2;" d="M148.48,447.624h-14.55l-10.474-209.952l21.577,0.27L148.48,447.624L148.48,447.624z"/>
<path style="fill:#ECF0F1;" d="M103.526,114.407l19.96,34.573l19.961-34.573l8.051,117.483c0,0-16.848,14.312-18.835,14.612
	c-1.988,0.298-2.633-1.193-2.633-1.193l-6.543-14.413l-6.543,14.413c0,0-0.646,1.491-2.633,1.193
	c-1.988-0.299-18.836-14.612-18.836-14.612L103.526,114.407L103.526,114.407z"/>
<path style="fill:#FFFFFF;" d="M105.445,79.22l1.938-3.678l14.165,12.524l-10.336,12.424L105.445,79.22L105.445,79.22z
	 M141.527,79.22L141.527,79.22l-1.938-3.678l-14.164,12.524l10.336,12.424L141.527,79.22L141.527,79.22z"/>
<path style="fill:#20D0C2;" d="M140.632,76.89l7.306,7.602l31.903,12.327c0,0,2.992-0.91,3.931,1.122
	c0.937,2.031,41.36,30.416,41.36,30.416l51.357-4.889l1.732,23.753l-58.442,10.016l-44.771-18.157l-6.295,53.256l15.104,73.551
	c0,0-27.828,12.622-32.699,13.22c-4.87,0.595-6.065-3.08-6.065-3.08l-14.609-91.444L140.632,76.89L140.632,76.89z M106.341,76.89
	L106.341,76.89l-7.308,7.602L67.128,96.819c0,0-2.439-0.93-3.381,1.108c-0.945,2.037-30.253,82.585-30.253,82.585l-7.701,62.448
	l25.344,0.796l5.248-54.104l17.899-37.474l3.976,40.158l-15.109,73.55c0,0,27.833,12.622,32.699,13.22
	c4.875,0.595,6.068-3.08,6.068-3.08l14.611-91.444L106.341,76.89z"/>
<path style="fill:#FFFFFF;" d="M30.972,242.797l18.413,0.697v4.126H30.722L30.972,242.797z"/>
<path style="fill:#F0B97D;" d="M110.907,66.444l-3.756,9.099l14.163,12.524h4.11l13.929-12.524l-1.772-8.852L110.907,66.444
	L110.907,66.444z"/>
<path style="fill:#FED198;" d="M98.344,26.183c0,1.675-0.613,3.315-0.566,4.921c-5.731-1.063-2.963,15.96,0.279,18.302
	c0.257,0.185,0.891-0.231,1.426-0.571c1.125,6.26,10.723,22.993,16.827,30.035c1.695,1.955,12.061,1.924,13.741,0.074
	c6.252-6.882,15.84-23.812,16.969-30.109c0.536,0.34,1.168,0.756,1.428,0.571c3.241-2.342,6.01-19.366,0.279-18.302
	c0.045-1.607-0.567-3.246-0.567-4.921c-0.316-13.221-12.294-19.82-24.909-19.876C110.64,6.364,98.66,12.963,98.344,26.183
	L98.344,26.183z"/>
<path style="fill:#666666;" d="M106.024,9.238c-1.806-0.212-8.336,1.789-9.12,8.697c-0.784,6.909-0.409,13.273-0.409,13.273
	s3.824,0.965,4.307,4.886c0.48,3.921,0.137,3.921,0.137,3.921l1.385-0.311l0.989-6.72c5.722-3.588-0.044-8.9,5.68-10.142
	c15.457,11.017,29.098,9.132,35.247,3.949c0,0-1.436,5.42-0.329,7.354c1.108,1.933,0.447,4.979,0.447,4.979l1.437-0.071
	c0,0-0.259-7.982,2.933-7.947C160.855,11.083,122.462-13.789,106.024,9.238L106.024,9.238z"/>
<path style="fill:#FFFFFF;" d="M276.593,124.899l5.576-1.197l1.829,20.097l-5.964,0.843L276.593,124.899L276.593,124.899z"/>
<path style="fill:#FED198;" d="M69.75,328.15c0,2.476-0.811,16.807-0.75,19.182c-7.585-1.571-2.399,23.615,1.891,27.072
	c0.336,0.271,1.178-0.341,1.888-0.843c1.127,7.015,7.173,16.089,14.284,24.604l-2.962,27.751l18.627-1.257l18.628,1.257
	l-2.954-27.688c7.158-8.459,13.125-17.65,14.251-24.668c0.708,0.502,1.549,1.114,1.888,0.843c4.288-3.457,9.475-28.644,1.89-27.072
	c0.06-2.375-0.747-16.705-0.747-19.182c-0.421-19.555-16.274-29.316-32.967-29.398C86.024,298.835,70.169,308.595,69.75,328.15z"/>
<path style="fill:#CCCCCC;" d="M79.223,419.292l-15.615,5.572c15.815,18.003,34.108,33.776,54.357,46.767l24.704-46.407
	l-16.579-5.874l-14.599,11.52H93.994L79.223,419.292L79.223,419.292z"/>
<path style="fill:#0E5E9A;" d="M97.477,429.814l2.007,5.526l-1.561,22.035c3.308,2.6,6.683,5.118,10.12,7.556l-2.093-29.591
	l2.005-5.526l-5.238-0.236L97.477,429.814L97.477,429.814z"/>
<path style="fill:#20D0C2;" d="M79.626,419.15l-16.018,5.712c29.993,34.145,68.93,60.227,113.146,74.614
	c-0.672-15.669-1.212-45.628-2.454-52.908c-1.374-8.041-6.993-12.616-6.993-12.616L126.09,419.35
	C110.434,410.967,94.935,410.28,79.626,419.15L79.626,419.15z"/>
<path style="fill:#FFFFFF;" d="M87.083,403.153c-5.654,2.973-5.211,6.025-5.211,6.025l-0.638,9.21
	c13.425-7.457,29.542-7.457,42.967,0l-0.638-9.21c0,0,0.29-2.717-5.21-6.025C110.581,398.479,96.279,398.312,87.083,403.153z"/>
<path style="fill:#666666;" d="M79.718,304.464c-8.197,6.678-18.336,15.099-14.657,28.153l7.456,26.454
	c3.387,12.017,3.884,33.875,19.746,33.655l10.472-0.146l10.472,0.146c15.861,0.22,16.365-21.637,19.746-33.655l7.454-26.454
	c3.68-13.055-6.458-21.476-14.655-28.153C116.406,296.846,89.063,296.846,79.718,304.464L79.718,304.464z"/>
<path style="fill:#FED198;" d="M223.032,328.15c0,2.476-0.811,16.807-0.75,19.182c-7.585-1.571-2.399,23.615,1.891,27.072
	c0.336,0.271,1.178-0.341,1.888-0.843c1.126,7.015,7.171,16.089,14.284,24.604l-2.963,27.751l18.628-1.257l18.628,1.257
	l-2.954-27.688c7.158-8.459,13.124-17.65,14.251-24.668c0.71,0.502,1.549,1.114,1.888,0.843c4.29-3.457,9.475-28.644,1.89-27.072
	c0.061-2.375-0.747-16.705-0.747-19.182c-0.422-19.555-16.274-29.316-32.966-29.398C239.305,298.835,223.45,308.595,223.032,328.15z
	"/>
<path style="fill:#CCCCCC;" d="M232.504,419.292l-23.461,8.37l36.381,56.264h19.278l31.247-58.703l-16.579-5.874l-14.598,11.52
	h-17.499L232.504,419.292L232.504,419.292z"/>
<path style="fill:#0E5E9A;" d="M250.759,429.814l2.005,5.526l-3.436,48.587h13.339l-3.436-48.587l2.005-5.526l-5.237-0.236
	L250.759,429.814L250.759,429.814z"/>
<path style="fill:#20D0C2;" d="M232.907,419.15l-41.499,14.802c0,0-5.622,4.575-6.992,12.616
	c-1.076,6.295-1.621,35.656-2.184,54.621c23.362,7.019,48.12,10.808,73.769,10.808c25.647,0,50.407-3.788,73.769-10.808
	c-0.563-18.965-1.113-48.326-2.189-54.621c-1.373-8.041-6.992-12.616-6.992-12.616l-41.216-14.601
	C263.714,410.967,248.216,410.28,232.907,419.15L232.907,419.15z"/>
<path style="fill:#FFFFFF;" d="M240.365,403.153c-5.656,2.973-5.212,6.025-5.212,6.025l-0.638,9.21
	c13.425-7.457,29.542-7.457,42.967,0l-0.638-9.21c0,0,0.291-2.717-5.21-6.025C263.862,398.479,249.562,398.312,240.365,403.153z"/>
<path style="fill:#666666;" d="M232.999,304.464c-8.196,6.678-18.336,15.099-14.657,28.153l7.456,26.454
	c3.385,12.017,3.884,33.875,19.746,33.655l10.472-0.146l10.471,0.146c15.861,0.22,16.366-21.637,19.746-33.655l7.456-26.454
	c3.679-13.055-6.458-21.476-14.655-28.153C269.687,296.846,242.344,296.846,232.999,304.464L232.999,304.464z"/>
<path style="fill:#FED198;" d="M376.311,328.15c0,2.476-0.809,16.807-0.75,19.182c-7.584-1.571-2.396,23.615,1.892,27.072
	c0.337,0.271,1.179-0.341,1.887-0.843c1.127,7.015,7.173,16.089,14.285,24.604l-2.963,27.751l18.628-1.257l18.629,1.257
	l-2.956-27.688c7.16-8.459,13.125-17.65,14.251-24.668c0.711,0.502,1.551,1.114,1.888,0.843c4.291-3.457,9.475-28.644,1.89-27.072
	c0.063-2.375-0.746-16.705-0.746-19.182c-0.422-19.555-16.273-29.316-32.966-29.398C392.585,298.835,376.731,308.595,376.311,328.15
	z"/>
<path style="fill:#CCCCCC;" d="M385.785,419.292l-23.461,8.37L391.7,473.09c21.159-13.255,40.238-29.511,56.646-48.18l-15.693-5.56
	l-14.599,11.52h-17.5L385.785,419.292L385.785,419.292z"/>
<path style="fill:#0E5E9A;" d="M404.04,429.814l2.005,5.526l-2.092,29.595c3.436-2.438,6.811-4.957,10.118-7.556l-1.559-22.039
	l2.006-5.526l-5.238-0.236L404.04,429.814L404.04,429.814z"/>
<path style="fill:#20D0C2;" d="M386.19,419.15l-41.5,14.802c0,0-5.62,4.575-6.993,12.616c-1.041,6.097-1.585,33.832-2.131,52.803
	c44.069-14.397,82.868-40.428,112.783-74.461l-15.694-5.56C416.996,410.967,401.497,410.28,386.19,419.15L386.19,419.15z"/>
<path style="fill:#FFFFFF;" d="M393.646,403.153c-5.654,2.973-5.211,6.025-5.211,6.025l-0.64,9.21
	c13.426-7.457,29.542-7.457,42.969,0l-0.639-9.21c0,0,0.291-2.717-5.211-6.025C417.143,398.479,402.842,398.312,393.646,403.153
	L393.646,403.153z"/>
<path style="fill:#666666;" d="M386.281,304.464c-8.197,6.678-18.337,15.099-14.657,28.153l7.454,26.454
	c3.385,12.017,3.883,33.875,19.746,33.655l10.472-0.146l10.471,0.146c15.861,0.22,16.366-21.637,19.746-33.655l7.454-26.454
	c3.68-13.055-6.458-21.476-14.655-28.153C422.967,296.846,395.626,296.846,386.281,304.464z"/>
<path style="fill:#807D7D;" d="M231.397,48.953h280.6v8.376h-280.6V48.953z M231.397,242.738L231.397,242.738h280.6v8.376h-280.6
	V242.738z"/>
<path style="fill:#C8CACC;" d="M342.722,48.953l28.555-16.452l0.609-0.374l0.617,0.374l28.169,16.452h-5.198l-23.582-14.067
	l-24.167,14.067H342.722z"/>
<path style="fill:#FFFFFF;" d="M371.963,38.133c2.23,0,4.048-1.818,4.048-4.046c0-2.229-1.818-4.048-4.048-4.048
	c-2.229,0-4.046,1.819-4.046,4.048C367.918,36.315,369.734,38.133,371.963,38.133z"/>
<g>
</g>
<g>
</g>
<g>
</g>
<g>
</g>
<g>
</g>
<g>
</g>
<g>
</g>
<g>
</g>
<g>
</g>
<g>
</g>
<g>
</g>
<g>
</g>
<g>
</g>
<g>
</g>
<g>
</g>
</svg>
