<?xml version="1.0" encoding="iso-8859-1"?>
<!-- Generator: Adobe Illustrator 19.0.0, SVG Export Plug-In . SVG Version: 6.00 Build 0)  -->
<svg version="1.1" id="Layer_1" xmlns="http://www.w3.org/2000/svg" xmlns:xlink="http://www.w3.org/1999/xlink" x="0px" y="0px"
	 viewBox="0 0 508.612 508.612" style="enable-background:new 0 0 508.612 508.612;" xml:space="preserve">
<circle style="fill:#324A5E;" cx="254.306" cy="254.307" r="217.007"/>
<path style="fill:#E6E9EE;" d="M471.313,243.796H247.185c-6.103,0-10.85-4.747-10.85-10.85V37.979
	c6.103-0.339,12.207-0.678,18.31-0.678C370.947,37.301,465.887,128.85,471.313,243.796z"/>
<path style="fill:#2C9984;" d="M469.278,223.452H256.679V37.301C365.183,38.318,454.698,119.017,469.278,223.452z"/>
<path style="fill:#FFD05B;" d="M279.058,187.51c-9.833,7.46-5.086,7.121,0.678,5.764l0.678,7.46
	c18.988-0.678,26.448-13.224,27.465-14.919C307.879,185.815,296.351,174.286,279.058,187.51z"/>
<path style="fill:#FF7058;" d="M190.899,490.98c0,7.46-3.73,17.632-8.138,17.632c-4.408,0-8.138-10.172-8.138-17.632
	s3.73-9.494,8.138-9.494S190.899,483.521,190.899,490.98z"/>
<path style="fill:#FFD05B;" d="M190.221,313.645c-1.017-3.391-3.391-6.442-7.121-7.121h-0.339h-0.339
	c-3.73,0.678-6.103,3.73-7.121,7.121c-8.477,25.43-13.563,63.068-6.781,104.434c6.442,38.654,9.494,72.562,9.494,72.562
	c0,6.442,2.374,9.833,4.747,10.172c2.374-0.678,4.408-7.46,4.747-10.172c0,0,3.052-33.907,9.494-72.562
	C203.784,376.713,198.698,339.075,190.221,313.645z"/>
<path style="fill:#FF7058;" d="M129.188,490.98c0,7.46,3.73,17.632,8.138,17.632c4.408,0,8.138-10.172,8.138-17.632
	s-3.73-9.494-8.138-9.494C132.918,481.486,129.188,483.521,129.188,490.98z"/>
<g>
	<path style="fill:#FFD05B;" d="M129.866,313.645c1.017-3.391,3.391-6.442,7.121-7.121h0.339h0.339
		c3.73,0.678,6.103,3.73,7.121,7.121c8.477,25.43,13.563,63.068,6.781,104.434c-6.442,38.654-9.494,72.562-9.494,72.562
		c0,6.442-2.374,9.833-4.747,10.172c-2.374-0.678-4.408-7.46-4.747-10.172c0,0-3.052-33.907-9.494-72.562
		C115.964,376.713,121.389,339.075,129.866,313.645z"/>
	<path style="fill:#FFD05B;" d="M282.788,185.136l-42.384,4.069c-3.391-24.752-7.46-44.079-7.46-44.079
		c-6.442-34.924-27.804-44.419-42.723-46.453c-4.408-0.678-15.258-3.391-15.258-4.069l0,0c0,0-2.713-2.713-3.391-4.408
		c-4.069-9.833-5.425-20.683-5.425-20.683H153.94c0,0-1.017,10.85-5.425,20.683c-0.678,1.695-3.391,4.408-3.391,4.408
		c0,0.339-10.85,3.391-15.597,4.069c-14.919,2.034-36.281,11.528-42.384,46.792c0,0-15.597,75.274-12.546,118.336h0.339
		c-1.017,7.799-0.678,18.649,4.747,32.212c1.017,2.374,3.73,2.713,5.425,1.017c1.017-1.017,1.356-2.374,0.678-3.391
		c-1.695-4.747-7.121-18.31-1.017-19.666c3.052-0.678,5.764,2.374,5.425,5.425l-0.339,2.713c0.678,2.374,3.391,3.391,5.425,2.034
		c0.678-0.678,1.356-1.695,1.356-2.374c0-3.052-2.374-17.632-2.374-17.632s1.695-69.849,16.954-98.331
		c1.695,8.816,2.374,17.632,2.713,26.787h91.211c0.339-8.816,1.356-17.971,2.713-26.787l10.172,33.229l0,0
		c1.017,6.442,6.442,16.275,30.517,10.511c0,0,31.534-3.73,37.298-7.799L282.788,185.136z"/>
	
		<ellipse transform="matrix(0.4578 -0.889 0.889 0.4578 50.633 199.0213)" style="fill:#FFD05B;" cx="188.491" cy="57.998" rx="6.103" ry="3.052"/>
	
		<ellipse transform="matrix(0.4578 0.889 -0.889 0.4578 123.1423 -86.1821)" style="fill:#FFD05B;" cx="132.23" cy="57.871" rx="6.103" ry="3.052"/>
</g>
<path style="fill:#F9B54C;" d="M170.894,88.84c-3.391,2.374-7.121,3.73-10.85,3.73c-3.73,0-7.46-1.356-10.85-3.73
	c3.73-9.494,4.747-19.666,4.747-19.666h12.207C166.147,69.173,167.164,79.346,170.894,88.84z"/>
<path style="fill:#FFD05B;" d="M188.865,44.421c0,21.023-12.885,44.419-29.16,44.419s-29.16-23.735-29.16-44.419
	s12.885-31.534,29.16-31.534S188.865,23.399,188.865,44.421z"/>
<path style="fill:#FF7058;" d="M214.634,394.683c3.052-30.517,4.747-76.291,4.747-91.889c0-18.649-2.374-36.281-6.781-51.539
	c-8.138-28.143-9.833-57.642-4.408-86.125c0,0,0,0,0-0.339c-9.155-14.919-6.442-63.407-6.442-63.407
	c-3.73-1.356-7.46-2.374-10.85-3.052l-0.678,18.649c-0.678,16.275-13.902,28.821-30.177,28.821l0,0
	c-16.275,0-29.499-12.885-30.177-28.821l-0.678-18.649c-3.391,0.678-7.121,1.356-10.85,3.052c0,0,2.374,48.487-6.103,63.407
	c0,0,0,0,0,0.339c5.086,28.482,3.73,57.981-4.408,86.125c-4.408,15.258-6.781,32.89-6.781,51.539
	c0,15.258,1.695,61.033,4.747,91.889L214.634,394.683L214.634,394.683z"/>
<path style="fill:#324A5E;" d="M172.25,1.02c0,0,37.298,5.086,16.275,70.527l-1.356-7.799c0,0-1.017,3.391-4.747,10.172
	c0,0,3.391-38.993-10.172-46.792c0,0,1.356,8.816-10.85,17.293l1.356-8.138c0,0-4.069,10.85-21.701,16.275l2.034-5.086
	c0,0-15.258,11.189-2.034,29.16c0,0-31.873-17.971-5.764-64.763l-3.391,2.034C131.901,13.566,143.09-4.405,172.25,1.02z"/>
<g>
	<path style="fill:#FFFFFF;" d="M316.695,142.413c-6.103,1.695-12.546,1.356-18.31-1.356h-0.339c0,0,0-0.339,0.339-1.017
		c2.034-3.73,3.391-7.799,3.391-11.868c0-1.356,0-3.391-1.017-4.747c-2.034-3.391-6.442-3.73-8.138-3.73
		c-0.678,0-2.374,0-3.391,1.017c-0.678,0.678-0.678,1.356-0.678,2.034c0,1.017,0.678,1.695,1.695,1.695
		c0.678,0,1.356-0.678,1.695-1.356c0,0,0.339,0,0.678,0c2.713,0.339,4.747,1.017,5.425,2.034s0.678,2.034,0.678,3.052
		c0,3.73-1.017,7.121-3.052,10.172c-0.339,0.678-1.695,2.713-0.339,4.408c0.678,0.678,1.356,1.017,1.695,1.356
		c3.73,1.695,8.138,2.713,12.546,2.713c2.713,0,5.764-0.339,8.477-1.356c1.017-0.339,1.356-1.356,1.017-2.034
		C318.73,142.752,317.713,142.074,316.695,142.413z"/>
	<path style="fill:#FFFFFF;" d="M347.551,141.057c-2.034-1.356-3.73-3.73-5.086-6.103l-0.678-1.356c0-0.339-0.339-0.339-0.339-0.678
		c1.695-2.713,3.052-5.425,4.747-8.816c0.339-1.017,0-1.695-0.678-2.374c-1.017-0.339-1.695,0-2.374,0.678
		c-1.356,2.713-2.374,5.086-3.73,7.121c-1.695-2.374-3.73-4.408-5.764-6.442c-0.678-0.678-1.695-0.678-2.374,0s-0.678,1.695,0,2.374
		c2.374,2.034,4.408,4.408,6.103,7.121c-0.339,0.339-0.339,0.678-0.678,0.678c-3.052,4.408-6.103,6.781-9.155,7.121
		c-1.017,0-1.695,1.017-1.356,2.034c0,1.017,0.678,1.356,1.695,1.356c0,0,0,0,0.339,0c4.069-0.339,7.799-3.052,11.528-8.138
		l0.339,0.678c1.695,2.713,3.391,5.425,6.103,7.121c0.339,0,0.678,0.339,1.017,0.339c0.678,0,1.017-0.339,1.356-0.678
		C348.568,142.752,348.229,141.396,347.551,141.057z"/>
	<path style="fill:#FFFFFF;" d="M390.952,143.77c-3.73-0.678-7.799-1.017-11.868-0.678h-1.017c-1.356,0-2.713,0.339-3.73,0
		c-1.356-0.339-2.374-0.678-3.052-1.695c-1.017-1.356-0.339-3.73,0.339-6.103c1.017-2.713,2.034-6.103,0.339-8.816
		c-1.695-2.374-4.408-3.052-6.781-3.73c-1.356-0.339-2.713-0.678-3.73-1.356c-0.678-0.339-1.695-0.339-2.373,0.678
		c-0.339,0.678-0.339,1.695,0.678,2.374c1.356,0.678,3.052,1.356,4.408,1.695c2.034,0.339,3.73,1.017,4.747,2.374
		c1.017,1.695,0.339,3.73-0.678,6.103c-1.017,2.713-2.034,6.103,0,9.155c1.017,1.695,3.052,2.713,5.425,3.052
		c1.695,0.339,3.052,0,4.408,0h1.017c3.73-0.339,7.46,0,10.85,0.678h0.339c0.678,0,1.356-0.678,1.695-1.356
		C392.309,144.787,391.63,144.109,390.952,143.77z"/>
	<path style="fill:#FFFFFF;" d="M389.935,128.172c5.764,1.356,11.868,1.695,17.971,1.695c0.678,0,1.356,0,2.034,0
		c1.017,0,1.695-0.678,1.695-1.695c0-1.017-0.678-1.695-1.695-1.695c-6.442,0-12.885-0.339-19.327-1.695
		c-1.017-0.339-1.695,0.339-2.034,1.356C388.579,127.155,388.918,127.833,389.935,128.172z"/>
	<path style="fill:#FFFFFF;" d="M416.383,134.275c-8.477-0.339-16.615,0-25.091,0.339c-1.017,0-1.695,1.017-1.695,1.695
		c0,1.017,0.678,1.695,1.695,1.695l0,0c8.138-0.339,16.615-0.678,24.752-0.339c1.017,0,1.695-0.678,1.695-1.695
		C418.078,135.293,417.4,134.275,416.383,134.275z"/>
</g>
<path style="fill:#324A5E;" d="M294.995,189.544L294.995,189.544c-1.017-1.356-1.017-3.052,0.339-3.73l93.923-63.407l0,0
	l-90.532,68.154C297.707,191.24,296.012,190.901,294.995,189.544z"/>
<g>
</g>
<g>
</g>
<g>
</g>
<g>
</g>
<g>
</g>
<g>
</g>
<g>
</g>
<g>
</g>
<g>
</g>
<g>
</g>
<g>
</g>
<g>
</g>
<g>
</g>
<g>
</g>
<g>
</g>
</svg>
