<svg baseProfile="tiny"
     xmlns="http://www.w3.org/2000/svg"
     viewBox="0 0 935 547">
    <path fill="#FFF" d="M615 548c3-6.5 2-13.4 2.1-20.3 0-1.2-.1-2.3-.1-3.5.1-1.6-4.9-1.8-1.3-4.2 2.6-1.8 8.1.1 9.4 2.9 1.8 4.1 3.5 8.2 5.5 12.9 2.9-3.5 3.7-7.5 5.4-11.1 2.1-4.6 5.3-6.2 9.8-4.9 1.2.4 2.6 1.4 1.3 2.3-3.4 2.1-2.3 5.3-2.1 8 .5 5.3-2.4 11.2 2.2 16 .1.1-.8 1.2-1.2 1.9h-8c-1.9-2.9 2.3-3.4 2.2-5.8-.3-4.9-.1-9.8-.1-14.6-2.5 3.6-4.2 7.2-5.9 11-.7 1.7-1.3 3.5-3.6 3.6-2.6.1-3.1-2-3.9-3.8-1.6-3.5-3.2-7.1-4.8-10.6.7 6.2-3.6 12.9 1.8 18.4.7.7-1.7.7-1.8 1.8H615z"/>
    <path fill="#FFF" d="M702 548c-.2-.6-.8-1.6-.6-1.8 5.8-6.5 1.3-14.2 2.7-21.3 0-.2-.1-.3 0-.5.4-1.7-5.3-2.2-1.1-4.5 3.2-1.7 7.7.2 9.1 3.4 1.8 4.1 3.5 8.2 5.4 12.7 2.7-3.9 3.8-8.2 5.7-12.2 1.6-3.6 6.3-5.5 9.9-3.9 1 .4 2 1.4.9 2.2-4 2.7-2.1 6.7-2 10 .1 4.7-2.2 9.9 2.2 14 .1.1-.8 1.2-1.2 1.9h-8c-2.3-2.9 2.2-3.3 2.1-5.6-.3-4.9-.1-9.8-.1-14.7-2.5 3.6-4.3 7.5-6 11.3-.7 1.5-1.3 3.1-3.4 3.2-2.3 0-3-1.6-3.7-3.4-1.6-3.8-3.4-7.6-5.1-11.4.8 6.3-3.8 13.1 1.9 18.7 0 0-1.1 1.3-1.6 1.9H702z"/>
    <path fill="#FFF" d="M231 548c3.4-6.6 2.4-13.8 2.4-20.8 0-1.1.2-2.8-.4-3.4-5.9-5.6.4-3.8 2.5-3.9 2.8-.3 5.7-.1 8.5.1 3 .2 5.5 1.2 6.5 4.5.9 3 .4 5.7-2 7.7-1.7 1.4-2.2 2.2-.6 4.2 2.3 2.9 2.8 6.9 6.5 9.1 2.3 1.3-1.4 1.4-1.3 2.6h-4c-1.6-2.2-3-4.5-4-7.1-1.1-2.8-2.9-5-6-5.9-.8-4 2.9-2.6 4.5-3.7 2.2-1.4 2.9-3.2 2.1-5.5-.9-2.4-3.2-2.7-5.4-2.7-3.1 0-2 2.5-2 4-.1 2.6.1 5.3.2 7.9.2 3.7-1.6 7.6 2.3 10.7 1.4 1.1-1.6 1-1.6 2.2H231zM312 548c-5.3-4.8-7.5-10.6-6.1-17.8 1.3-6.6 5.7-10.9 12.1-11 6.6-.2 11 3.5 12.4 10.5 1.5 7.7-.7 13.9-7.4 18.4-3.7-.1-7.3-.1-11-.1zm-1.2-15.1c.1 2.1.1 3.2.2 4.4.5 4.2 2.4 7.5 7.1 7.5 4.4 0 6.3-2.9 7.1-6.9.6-3.2.5-6.3-.3-9.4-.8-3.1-2.7-5.3-6.2-5.5-3.7-.2-6 1.7-7.1 5-.6 1.8-.7 3.8-.8 4.9z"/>
    <path fill="#FFF" d="M463 548c-.2-.6-.8-1.5-.6-1.8 5.6-6.5 1.3-14.2 2.6-21.3 0-.2-.1-.3 0-.5.4-2-4.2-1.6-2.1-3.9 1.5-1.7 4.1-.6 6.2-.7 2.2-.1 4.3 0 6.5.1 2.8.2 5.3 1.2 6.3 4 1 3 1 6.2-1.8 8.1-2.5 1.7-1.5 2.8-.3 4.6 1.9 3 2.4 6.8 6.2 8.7 2.4 1.2-1.2 1.5-1 2.7h-4c-1.8-2.2-3.3-4.4-4.3-7.1-1.1-3.1-3.3-5.4-6.9-6.5.7 4.1-1.7 8.4 2.6 11.6.9.7-1.6.8-1.4 2h-8zm6.2-14.5c4.2-2.1 9-1.8 8-7.2-.5-2.8-3.4-3.9-5.4-3-4.5 2-.7 6.3-2.6 10.2z"/>
    <path fill="#FFF" d="M391 548c-6.2-5.2-8.7-11.6-6-19.5 2.5-7.5 12.7-11.8 19.8-8.5 1.8.8 2.4 2.1 2.3 4-.1 1.3-.7 2.3-1.9 2.7-1.7.5-2.2-1-2.8-2.2-1.3-2.8-3.8-1.6-5.7-1.3-5 .8-7.8 5.5-7.5 11.9.3 5.8 3.3 9.3 8.6 9.7 1.4.1 3.5.8 4-1 .4-1.8 1.6-4.3-1-5.7-.9-.5-1.9-.9-1.3-2.2.5-1.1 1.6-1.1 2.6-1.1h4.5c2.4.1 4.1.9 1.4 3-1.6 1.3-1.1 2.7-1 4 .3 2.8-.7 4.7-2.9 6.1-4.4.1-8.8.1-13.1.1zM537 548c-.3-.7-1.1-1.8-.8-2.1 5.2-6.4 5.7-14.5 8.8-21.7.9-2.1 1.3-4.8 4.2-4.9 3.3-.2 3.7 2.7 4.5 5 2.8 7.1 3.6 15 8.4 21.4.8 1.1-1.1 1.4-1.1 2.4h-7c-.4-1-1.6-1.8-.2-3 2.4-2 .5-4.6-.6-5.6-2.2-1.9-5.5-1.4-8-.5-1.9.6-2.9 3.5-1.7 5.4 1.1 1.8.4 2.5-.5 3.7-2-.1-4-.1-6-.1zm15.1-13.2c-1-3-1.8-5.7-2.7-8.3-.1-.2-.5-.3-.8-.5-3.6 9.4-3.6 9.4 3.5 8.8z"/>
    <path fill="#FFF" d="M788.9 547c3.5-6.4 1.6-13.3 2-20 .1-1.1.3-2.8-.4-3.4-5.5-4.8 0-3.7 2.1-3.8 4.2-.2 8.3-.1 12.5-.1 1.7 0 3 .4 3.2 2.3.2 1.2.1 2.4-1 3.2-1.7 1.2-2.2-.7-3.2-1.3-2.4-1.5-5.6-1.5-7.6-.4-2.1 1.2-1.1 4.6-.7 6.9.5 2.5 3.1.9 4.7 1.2 1.5.3 3.9-.5 4 1.8 0 1.6-2.2 1.5-3.6 1.7-1.7.3-4.5-1.5-5 1.4-.4 2.3-1.3 5.7.4 7.2 1.8 1.6 5.1.9 7.6.3 1.3-.3 1.7-3.5 3.8-2 2.2 1.6.6 3.9.1 5.9h-2c-5.4-2-11.2-.3-16.9-.9zM158 548c3-6.7 2.1-13.7 2.1-20.7 0-1.3.5-2.7-.6-3.8-.8-.8-2.8-1.1-1.6-2.9.8-1.3 2.4-.8 3.7-.8 2.3 0 4.7 0 7 .1 7 .4 10 3.4 9.3 9.4-.7 5.4-5.5 8.1-12 6.8-.4-2.4 1.2-2.6 2.9-3 3.3-.8 4.6-3.1 4-6.3-.6-3-3.1-3.6-5.7-3.6-3.3 0-1.9 2.5-1.9 4-.1 3 .1 5.9.2 8.9.1 3.3-1.9 6.8 2.1 9.4 2 1.3-1.4 1.4-1.4 2.5H158z"/>
    <path fill="#FFF" d="M868 548c-.2-.8-1.4-1.4-.7-2.2 6-6.6 1.6-14.4 2.4-21.6.2-1.9-3.1-1.8-4.8 0-.8.8-1.4 2.1-2.8 1.4-1.4-.7-1.3-2.2-1.2-3.5.1-1.8 1.3-2.2 2.7-2.2h18c1.5 0 2.5.8 2.6 2.4.1 1.2.2 2.4-1 3.1-1.6 1.1-2.5-.2-3.1-1.3-1-1.8-2.7-1.1-4-1-2.1.2-1.2 2.1-1.2 3.2-.1 4.8-.1 9.7 0 14.5 0 1.6-.3 3.1 1.8 4.1 2.5 1.2-.3 2.1-.6 3.1H868z"/>
    <path fill="#434343" d="M788.9 547c5.7.5 11.5-1.1 17.1 1h-17c0-.3 0-.6-.1-1z"/>
    <path fill="#A9DDF1" d="M625.7 438c-6.3 5.7-11.9 11.1-17.8 16.1-17.2 14.5-35.1 28.1-55.6 37.7-8.4 3.9-17 6.8-26.5 4.1-13.2-3.7-21.2-16.7-18.2-30 4.4-19.4 13.5-36.8 22.7-54.1 2.5-4.7 5.2-9.3 7.8-13.9.8-1.5 2.7-2.9-.1-4.9-3-2.1-3.8.2-5 1.8-20 25.9-42.1 49.8-65.3 72.9-11.7 11.6-24.6 21.4-40.4 26.8-5.1 1.8-10.3 2.7-15.6 2.9-12.2.5-19.7-8-18.1-20.1 1.4-11.1 5.5-21.6 7.1-32.6.5-3.3.9-6.7.2-9.9-1-5.1-4.9-6.7-9.4-3.9-3.6 2.3-6.1 5.6-8.7 8.8-13.1 15.7-26 31.7-39.7 46.9-7.4 8.3-16 12-27 10.5-8.5-1.2-11.5-5.3-8.8-13.4 5.5-16.1 13.4-31.1 21.3-46.1 9.6-18.1 19.5-35.9 29.2-54 .9-1.7 4.3-3.6.6-6.2-3.8-2.7-4.2 1.1-5.4 2.7-16.3 21.5-32.6 43-50.9 62.9-18.8 20.4-39.8 38.4-65.7 49.7-13.5 5.9-27.4 9.3-42.3 6.4-19.1-3.7-34.9-25.9-32-45.1.7-4.9 1-10 4.5-14 1.4-1.6.4-2.6-.6-3.8-1.3-1.5-2.4-1.4-3.7-.1-.9.9-2.1 1.6-3.2 2.4-2.5 2-4.8 2.1-7-.5s-3.6-5.5-.7-8.4c3.2-3.2 6.9-5.9 9.8-9.2 10.1-11.3 19.7-23 30-34.1 16.6-17.7 34.8-33.5 57.3-43.5 10.5-4.7 21.4-7.3 33-4.6 17.8 4.1 27.3 22 20.6 39-3.2 8.2-8.2 15.2-13.9 21.8-19.4 22.3-42.7 39-71 48.2-2.8.9-3.9 2.2-4 5.2-.5 16.2 8.6 23.8 24.4 20.4 12.4-2.7 22.4-9.6 32.1-17.4 20.9-16.8 38.1-37.1 55.9-56.9 29.9-33.3 56.1-69.3 75.7-109.7 5.5-11.4 9.7-23.4 16.2-34.2 2.1-3.4 4.2-6.8 7.1-9.6 2.7-2.8 5.9-3.4 9-1 10.8 8.3 17.9 19.1 20.5 32.6.5 2.6-.4 5.2-1.6 7.7-18.9 39.4-37.7 78.9-56.6 118.3-.9 1.9-1.8 3.7-2.9 6 3.6-.2 5-3 6.8-4.9 18.8-19.1 37.9-37.9 59.6-53.8 5.9-4.3 12.1-8.2 19-10.9 7.8-3 15.1-1.4 21.9 2.9 6.1 3.9 6.6 10.1 5.2 16.4-1.8 7.9-5.3 15.1-10.6 21.3-7.5 8.8-16.4 11.1-27.2 4.1-10.5-6.8-18.2-4.1-26.4 2.9-5.9 5.1-11.9 10.1-17.4 16 5.1-.8 10.2-1.5 15.4-2.3 17.4-2.7 19.8-.1 16.6 16.9-1.2 6.3-2.8 12.7-1.7 19.3 1.7 10.1 9.3 13.7 17.7 8 10.3-6.9 19.2-15.5 27.4-24.7 19-21.6 37.7-43.5 56.5-65.4.3-.4.5-.8 1.3-2-2.9 0-5.3.1-7.7 0-2.9-.2-5.9-1-6.4-4.4-.6-3.6-.1-7.1 3.6-9.1 4.3-2.4 9.3-3.7 14-3 9.9 1.4 14.9-4.4 19.3-11.7 8-13.4 16.1-26.8 24.1-40.2 5.9-9.9 9-10.3 16.6-1.5 4.3 5 9.3 9.6 11.6 16.1 3.5 9.6.1 18.3-3.9 26.9-1.6 3.3-3.3 6.5-5.3 10.3 6.7.3 12.9.6 19.2 1 4.3.3 10.5-.4 11.9 3.1 1.5 3.8-3.7 7.6-6.1 11.2-1.8 2.6-5 2.3-7.8 2.3-7.7.1-15.3.1-23 0-2.3 0-3.5.8-4.7 2.7-15.8 25.7-29.8 52.3-42.9 79.4-2.1 4.2-3.5 8.7-3.3 13.4.3 6.4 4.5 9.6 10.7 8.4 4.8-1 9.1-2.9 12.9-6.1 5.7-4.9 11.5-9.6 17.5-14.2 11.9-9.2 19.7-22.1 29.6-33 18.3-20 36.1-40.6 58.6-56.2 11-7.6 22.7-13.7 36.4-15.2 21.5-2.4 37.3 11.4 37.5 33.3.2 17.2-5.5 33-12.3 48.5-1 2.3-2.3 4.5-3.2 6.8-1.4 3.6-5.2 7 .4 10.8 2.4 1.6 1 5.7 1.6 8.7 7.6-1.2 13.7-4.5 18.8-10.2 17.9-20 35.1-40.6 49-63.6 1.7-2.7 2.3-4.4-.7-6.9-5.3-4.3-7-10.5-5.9-17.1 1.4-8.3 4.7-16 10.4-22.4 5.9-6.5 13.4-9.2 22.1-7.7 6.2 1 9.3 4.7 9.5 11 .2 5.5-1.2 10.6-3.7 15.4-1.5 2.9-.6 4.1 2 5.2 6.8 3 13.7 2.7 20.6 1.1 8.1-1.9 16-4.6 24-6.7 14.1-3.6 17.5 3.5 15.3 15.7-.7 3.7-2.6 7.2-4.3 10.6-11.5 22.5-21.5 45.7-31.9 68.7-1.7 3.8-2.9 7.8-2.9 12.1 0 6.3 3.5 8.8 9.5 6.8 2.2-.8 4.2-2 5.9-3.7 8.3-8.2 16.6-16.4 24.8-24.6 1.3-1.3 2.7-2.4 4.5-3 2.7-.9 4.8-.2 6.6 2 2 2.3.5 4-.7 5.7-7.9 10.8-17 20.5-26.6 29.8-14.3 13.9-30 25.9-47.9 34.7-7.6 3.7-15.5 6-24.1 4.4-14.2-2.8-23.3-16.3-20.2-30.5 2.3-10.5 7.5-19.9 13-29 7.5-12.4 16.5-23.8 25.4-35.2 4.8-6.2 9.2-12.7 11-20.5 1.7-7.5-1.4-12.8-8.8-14.8-8.4-2.2-9.6-1.9-15 5.1-15.7 20.3-31.8 40.2-48.6 59.6-10.6 12.1-22.3 22.4-38.8 25.6-4.2.8-8.6 1.3-12.2-.8-3.9-2.2-5.3-.4-7.4 2.3-9.4 12-20.2 22.6-33.7 30-10.3 5.6-21.2 8.7-33 8.7-21.7.1-36.7-14.3-37.9-36.1-.4-8.5.2-16.1 1.6-24.4zm123.7-66.8c.3-6.4-.2-11.3-5-14.1-4.7-2.7-9.6-2.3-14.3 0-1.8.9-3.5 2-5 3.3-3 2.9-6.1 5.7-8.7 9-15.6 20.3-27.6 42.7-37 66.4-2.1 5.4-3.5 11.1-3.1 17.1.8 11.5 11.8 17.9 22 12.7 8-4 11.6-11.6 15.5-19 2.2-4.3-1.5-7.1-2.6-10.6-5.2-16.9 2.1-26.3 19.7-24.9.5 0 1 .1 1.5.2 1.3.3 2.1-.1 2.7-1.4 6.4-12.8 13-25.5 14.3-38.7zm-470.1-1c-.1-3.8.2-7.3-3.3-9.3-3.8-2.1-7.1-.5-10.2 1.6-1.8 1.2-3.4 2.6-5 4.2-8.8 8.9-16.4 18.7-23.4 29.1-2.3 3.4-4.2 7.2-4.6 11.4-.6 6.8 4.3 10.5 10.8 8.3 2.4-.8 4.5-2.2 6.4-3.8 7.3-5.8 14-12.3 20-19.4 5.6-6.5 9.1-13.9 9.3-22.1z"/>
    <path fill="#6FCCEA" d="M20.5 92.2c17.2-23.4 31-48.4 43.1-75.4C74.1 44.4 86 70.6 103.3 95.4c-5.5-2.1-10.1-3.9-16-6.2 0 7.7.2 14.8 0 21.8-1.3 40.4-2.6 80.8-4 121.2-1 28.6-1.9 57.2-3 85.8-1.6 41.4-3.5 82.8-6.6 124.1-.9 11.4-2 22.9-3.1 34.3-.2 2-.7 3.8 2 4.8 2.6 1 3.5-.4 4.7-2.2 36-55.1 77.4-106.3 118.3-157.8 38.9-48.9 77.6-97.9 116.3-146.8 3.7-4.6 3.7-4.6-1.9-6.5-2.5-.8-5-1.7-7.5-2.6-.5-.2-.9-.4-2.3-1.2 28.6-7.7 54.8-19.3 80.8-33.6-8.4 28.4-14.4 56.2-15.6 85.8-3.6-3.9-5.5-7.9-7.6-11.6-1.8-3.1-2.8-4.2-5.7-.7-22.2 27.5-44.5 54.8-66.8 82.2-13.7 16.8-27.3 33.6-41 50.4-1.3 1.6-2.5 3.1-4.4 4-26 14-46.7 34-65.5 56.3-8 9.5-15.8 19.2-25.5 27.4-8.1 6.8-5 17.1 6.5 21.2-5.2 6.4-10.2 12.7-15.3 19-19 23.4-38.1 46.7-57 70.2-2.1 2.6-3.8 3.7-7.4 2.3-15.1-5.6-30.3-10.9-45.6-16.1-3.1-1.1-4-2.6-3.9-5.8.9-32.4 1.6-64.9 2.4-97.3.7-29 1.3-57.9 2-86.9.7-29 1.3-57.9 2-86.9l3-130.8c.2-7.5.2-15 .6-22.5.1-3-.4-3.8-3.4-2.7-4 1.7-8.2 2.8-12.3 4.2z"/>
</svg>