<svg baseProfile="tiny" xmlns="http://www.w3.org/2000/svg" viewBox="0 0 935 547"><path fill="#FEFEFE" d="M1 104C1 70.8 1 37.7.9 4.5.9 1.6 1.4.9 4.4.9c309.5.1 618.9.1 928.2 0 4 0 3.4 1.8 3.4 4.3v415.9c-7.7-7.6-14.8-8.1-21.2-1.7-8.2 8.2-16.6 16.4-24.9 24.6-1.6 1.5-3.2 2.9-5.7 2.9-1-3.8.2-7.3 1.7-10.6 9.7-21.7 19.1-43.5 29.9-64.6 3.4-6.6 7.3-13.2 7.8-20.9.9-13-5-20.6-18.2-18.9-7.2.9-13.9 3.3-20.7 5.4-6.2 2-12.5 3.4-19.1 2.8-2.9-.2-4.5-1-2.9-4.3.7-1.3 1-2.8 1.3-4.3 4.1-18.3-6.3-28.6-24.6-24.7-14.2 3.1-26.5 19.3-27.5 36.1-.4 6.4.5 12.4 4.9 17.3 2.3 2.5 1.8 4.2.2 6.8-13.1 21-29.2 39.6-45.5 58.1-2.9 3.3-5.7 6.4-9.7 7.5-4.9-5.2-3.3-10.2-.1-15.3.8-1.2 1.2-2.7 1.8-4.1 6.6-15.9 12-32.1 11.5-49.6-.6-22.9-17.5-38.7-40.3-37.5-15.7.8-29.2 7.5-41.8 16.1-21 14.3-38 32.8-54.7 51.6-16.4 18.5-31.4 38.4-52.1 52.7-2.9 2-5.9 3.6-9.3 4.5-3.4.9-5.1-.3-5-3.9.1-3.6 1.2-6.9 2.8-10 10.6-21.2 20.9-42.7 33.3-62.9 3.2-5.2 5.1-12.7 9.7-15.3 4.9-2.7 12.4-1.3 18.6-.7 9.8.9 16.3-2.5 21.2-11.2 5.1-9 4-12.8-6.1-15.2-6.1-1.4-12.3-1.3-18.8-2 1.5-3.7 3-6.8 4.1-10.1 3.6-10.5 4.2-21-2.7-30.5-3.6-5-7.6-9.7-12-14-7.6-7.7-15.1-6.7-20.9 2.6-3.8 6.1-7.3 12.3-11.1 18.4-6.3 10-11.6 20.5-18.7 30.1-1.8 2.4-3.8 3.3-6.7 3.3-6 0-12 .6-17.7 2.6-7.2 2.6-10.7 9.4-9.1 16.7.9 4.5 4.4 6.4 8.1 8.5-19.9 22.6-38.5 45.9-59.4 67.2-5.6 5.7-11.5 11.2-18.3 15.4-4.2 2.6-7.5 1.1-8.3-3.8-.3-2.1-.5-4.3-.2-6.5.8-6.1 2-12.1 2.9-18.2 1.9-12.6-2.3-17.4-14.9-17.6h-2.5c-.8 0-1.7 0-2-1.1-.3-1.1.7-1.4 1.2-1.9 7.4-7.1 10.8-7.6 19.9-2.9.3.2.6.3.9.4 12.9 6.2 24.2 5 32.5-4 7-7.6 11.6-16.6 13.4-26.9 2.1-11.9-2.9-20-14.2-24-7.9-2.8-15.6-2.6-23.3 1-5.4 2.6-10.5 5.6-15.5 9.1-14.2 9.9-27 21.6-39.7 33.4-1.7 1.6-3 4.7-6.3 3.9 15.4-32.2 30.7-64.2 46-96.2 1.3-2.7 2.1-5.8 1.5-8.8-2.7-15-10.4-27.3-22.5-36.5-5.9-4.5-11.8-3.4-17 1.9-4.7 4.8-8.1 10.6-11 16.6-5.1 10.8-9.4 22-14.9 32.6-32.4 62-77 114.2-128.7 160.7-7.6 6.9-16.2 12.2-26.1 15.2-4.4 1.3-8.7 2.1-13.2.7-4.8-1.4-7-5.2-7.6-11.1-.5-5.2 3.6-4.8 6.3-5.9 14.9-5.7 28.7-13.2 41.2-23 15.7-12.3 30-25.9 39.2-44 3.8-7.4 5.8-15.3 4-23.6-3.9-17.8-20.6-29.4-39.5-27.9-5.3.4-10.3 1.8-16.5 2.6 34-41.8 67.4-82.8 101-124 5.5 9.1 10.8 17.7 16.1 26.3-.6-20.2 1.2-39.9 4.8-59.4 3.6-19.6 8.8-38.7 15.6-58.7-18 10.9-35.6 20-53.8 27.5-18.4 7.6-37.2 13.7-57.2 17.4 8.7 3.1 17.5 6.1 26.2 9.2-75.7 99.2-157.3 193.3-229 296.5.2-2.8.3-4.6.5-6.4 1.2-15.8 2.7-31.5 3.6-47.3 2.3-37.4 4.1-74.7 5.3-112.1 1.4-44.4 3.1-88.8 4.6-133.2.8-22.8 1.5-45.6 2.1-68.4.1-3.5.9-4.2 4.3-2.8 5.9 2.6 12 4.9 18 7.2 1.1.4 2.2 1.7 3.8.4C93.2 75.8 77.4 39.8 64.5 2.2c-1.8.8-1.8 2.5-2.4 3.8-14.5 34.5-31.9 67.3-57.9 94.8-.6.6-1.7 1.2-1.3 2.4-.6.3-1.2.5-1.9.8z"/><path fill="#FDFDFD" d="M1 104c.7-.3 1.3-.5 2-.8 9.4-1.8 18.1-6.1 27.2-8.1 0 7 .1 13.8 0 20.6-.5 26.6-1.1 53.3-1.7 79.9-1.1 45.9-2.2 91.8-3.3 137.8-.6 26.6-1.1 53.3-1.7 79.9-.8 35.3-1.6 70.6-2.5 105.8-.1 3.5 1.1 4.8 4.2 5.9 17.6 6 35.1 12.2 52.6 18.6 3.2 1.2 4.9.6 7-2 19.4-24.1 39-48.1 58.5-72.1 3.9-4.8 7.9-9.6 12.7-15.5v3.2c-.2 22.4 16.8 43.5 38.8 47.4 15.4 2.7 30.1-.8 44.2-7.1 29.8-13.4 53.3-34.7 74.5-59 6.4-7.4 12.5-15 18.9-22.6 1.3 1.9-.1 2.9-.6 4-4.1 8-8.5 15.8-12.5 23.8-6.5 13.2-13.8 26.2-17.7 40.6-2.5 9.1 1.9 16.1 11 17.8 13 2.5 24.1-.3 33.4-10.5 14.3-15.8 27.7-32.4 41.3-48.8 2.2-2.7 4.2-5.7 7.7-7.3 1.1 2.5.7 4.4.4 6.4-1.3 10.9-5.1 21.3-7 32.2-3.2 19 8 30.9 27.1 28.6 16.3-1.9 30-9.3 42.7-19.2 15.3-12 27.6-27 41.2-40.6 5.9-6 11.3-12.5 17.1-18.9.9 2.3-.6 3.5-1.2 5-5.2 11.3-10.1 22.8-12.9 35-4.1 17.5 6.5 34.5 24 38 10 2 19.5-.7 28.5-5 22.2-10.6 41.6-25.5 60.3-41.4.9-.7 1.4-2.3 3.3-1.7v5c.6 23.9 13.7 40.4 35.4 43.9 7.6 1.2 15.3.6 22.8-1 21.3-4.6 37.6-17.2 51.3-33.3 3.6-4.2 6.7-7.3 12.6-5.1 1.6.6 3.6.2 5.5 0 16.6-1.6 29.3-10.5 40.1-22.2 19.4-21.1 37.3-43.5 54.5-66.3 3-4 6.2-2.7 9.6-1.7 3.8 1.2 4.5 3.9 3.8 7.5-1 5-3.4 9.4-6.3 13.4-5.5 7.7-11.5 15.1-17.1 22.8-10.3 14.3-20.4 28.8-25.3 46.1-5.3 18.8 5.7 36.9 24.6 40.1 9.5 1.6 18.5-.7 27-5.1 32.3-16.4 57.5-40.8 78.9-69.6 0 38.8 0 77.7.1 116.5 0 3-.6 3.6-3.6 3.6-18.8-.2-37.7-.1-56.5-.1.4-1 3.1-1.8.6-3.1-2.1-1-1.8-2.5-1.8-4.1 0-4.8-.1-9.7 0-14.5 0-1.1-.9-3 1.2-3.2 1.3-.1 2.9-.8 4 1 .6 1.1 1.5 2.3 3.1 1.3 1.2-.8 1.1-2 1-3.1-.1-1.6-1.1-2.4-2.6-2.4h-18c-1.5 0-2.6.4-2.7 2.2-.1 1.4-.2 2.8 1.2 3.5 1.4.7 2-.6 2.8-1.4 1.7-1.7 5.1-1.9 4.8 0-.8 7.2 3.6 15-2.4 21.6-.7.8.6 1.4.7 2.2h-60c.5-2 2-4.2-.1-5.9-2.1-1.6-2.4 1.6-3.8 2-2.5.6-5.8 1.4-7.6-.3-1.7-1.5-.9-4.8-.4-7.2.6-2.9 3.3-1.1 5-1.4 1.5-.3 3.7-.1 3.6-1.7 0-2.2-2.4-1.5-4-1.8-1.6-.3-4.2 1.3-4.7-1.2-.4-2.3-1.5-5.7.7-6.9 2-1.1 5.1-1.1 7.6.4 1 .6 1.5 2.5 3.2 1.3 1.1-.8 1.1-1.9 1-3.2-.3-1.9-1.6-2.3-3.2-2.3-4.2 0-8.3-.2-12.5.1-2.2.1-7.6-1-2.1 3.8.6.6.4 2.2.4 3.4-.4 6.7 1.4 13.6-2 20 .1.3.1.6.1 1h-56c.4-.7 1.3-1.8 1.2-1.9-4.3-4.1-2.1-9.3-2.2-14-.1-3.3-1.9-7.3 2-10 1.1-.8 0-1.7-.9-2.2-3.6-1.5-8.3.3-9.9 3.9-1.8 4-3 8.3-5.7 12.2-1.9-4.5-3.6-8.6-5.4-12.7-1.4-3.2-6-5.1-9.1-3.4-4.2 2.3 1.5 2.7 1.1 4.5 0 .2.1.3 0 .5-1.4 7 3.1 14.8-2.7 21.3-.2.2.4 1.2.6 1.8h-56c.4-.7 1.4-1.8 1.2-1.9-4.7-4.8-1.7-10.7-2.2-16-.3-2.6-1.4-5.8 2.1-8 1.3-.8-.1-1.9-1.3-2.3-4.6-1.3-7.7.3-9.8 4.9-1.7 3.6-2.5 7.6-5.4 11.1-2-4.6-3.7-8.8-5.5-12.9-1.2-2.8-6.8-4.7-9.4-2.9-3.5 2.4 1.4 2.6 1.3 4.2-.1 1.2.1 2.3.1 3.5-.1 6.8.8 13.7-2.1 20.3h-54c0-1 1.9-1.3 1.1-2.4-4.8-6.3-5.6-14.3-8.4-21.4-.9-2.3-1.2-5.2-4.5-5-2.9.2-3.2 2.8-4.2 4.9-3.1 7.2-3.7 15.4-8.8 21.7-.2.3.5 1.4.8 2.1h-52c-.2-1.1 3.4-1.4 1-2.7-3.8-1.9-4.3-5.7-6.2-8.7-1.1-1.8-2.2-2.9.3-4.6 2.8-1.9 2.8-5.2 1.8-8.1-1-2.8-3.5-3.8-6.3-4-2.2-.1-4.3-.2-6.5-.1-2.1.1-4.7-1-6.2.7-2.2 2.4 2.5 2 2.1 3.9v.5c-1.3 7 3 14.7-2.6 21.3-.2.2.4 1.2.6 1.8h-59c2.2-1.5 3.2-3.4 2.9-6.1-.1-1.3-.6-2.8 1-4 2.7-2.2 1-2.9-1.4-3-1.5-.1-3 0-4.5 0-1 0-2.1 0-2.6 1.1-.5 1.2.5 1.7 1.3 2.2 2.6 1.5 1.4 3.9 1 5.7-.4 1.8-2.6 1.1-4 1-5.3-.4-8.4-3.9-8.6-9.7-.3-6.4 2.5-11 7.5-11.9 1.9-.3 4.3-1.5 5.7 1.3.6 1.2 1.1 2.7 2.8 2.2 1.2-.3 1.8-1.3 1.9-2.7.1-1.9-.6-3.1-2.3-4-7.1-3.4-17.2 1-19.8 8.5-2.7 7.9-.2 14.3 6 19.5h-68c6.6-4.5 8.9-10.7 7.4-18.4-1.4-7-5.8-10.6-12.4-10.5-6.4.2-10.8 4.4-12.1 11-1.4 7.2.8 13 6.1 17.8h-59c0-1.2 3.6-1.2 1.3-2.6-3.8-2.2-4.2-6.2-6.5-9.1-1.6-2-1.1-2.8.6-4.2 2.4-1.9 2.9-4.7 2-7.7-1-3.2-3.5-4.3-6.5-4.5-2.8-.2-5.7-.4-8.5-.1-2 .2-8.4-1.7-2.5 3.9.6.6.4 2.2.4 3.4 0 7 1 14.2-2.4 20.8h-65c0-1.2 3.4-1.2 1.4-2.5-4-2.7-2.1-6.2-2.1-9.4h.6c6.6 1.3 11.3-1.3 12-6.8.8-5.9-2.3-9-9.3-9.4-2.3-.1-4.6-.1-7-.1-1.3 0-2.9-.5-3.7.8-1.1 1.8.9 2 1.6 2.9 1 1.1.6 2.5.6 3.8 0 7 .9 14-2.1 20.7-51 0-102 0-153 .1-3.4 0-4.1-.7-4.1-4.1C1 397.3 1 250.7 1 104z"/><path fill="#0A0A0B" d="M936 428c-21.4 28.8-46.6 53.2-78.9 69.6-8.5 4.3-17.5 6.7-27 5.1-18.9-3.2-29.9-21.3-24.6-40.1 4.9-17.3 15-31.8 25.3-46.1 5.6-7.7 11.5-15.1 17.1-22.8 2.9-4 5.4-8.4 6.3-13.4.7-3.6 0-6.3-3.8-7.5-3.5-1-6.6-2.4-9.6 1.7-17.3 22.9-35.2 45.2-54.5 66.3-10.8 11.7-23.5 20.6-40.1 22.2-1.8.2-3.8.6-5.5 0-5.9-2.1-9 .9-12.6 5.1-13.8 16.1-30 28.7-51.3 33.3-7.6 1.6-15.2 2.3-22.8 1-21.7-3.5-34.8-20-35.4-43.9v-5c-1.9-.7-2.5.9-3.3 1.7-18.6 15.9-38 30.8-60.3 41.4-9 4.3-18.5 7-28.5 5-17.5-3.5-28-20.5-24-38 2.8-12.2 7.7-23.7 12.9-35 .7-1.4 2.1-2.7 1.2-5-5.8 6.5-11.1 13-17.1 18.9-13.6 13.7-26 28.7-41.2 40.6-12.6 9.9-26.4 17.2-42.7 19.2-19 2.3-30.3-9.7-27.1-28.6 1.8-10.8 5.7-21.2 7-32.2.2-2 .7-3.9-.4-6.4-3.5 1.6-5.5 4.6-7.7 7.3-13.6 16.4-27 33-41.3 48.8-9.3 10.2-20.5 13-33.4 10.5-9.1-1.8-13.5-8.7-11-17.8 3.9-14.4 11.1-27.3 17.7-40.6 4-8 8.4-15.9 12.5-23.8.5-1 1.9-2.1.6-4-6.3 7.6-12.4 15.2-18.9 22.6-21.2 24.3-44.7 45.6-74.5 59-14 6.3-28.8 9.8-44.2 7.1-22-3.9-39-25-38.8-47.4v-3.2c-4.8 5.9-8.8 10.7-12.7 15.5-19.5 24-39.1 48-58.5 72.1-2.1 2.6-3.8 3.2-7 2-17.5-6.4-35-12.5-52.6-18.6-3.2-1.1-4.3-2.4-4.2-5.9 1-35.3 1.7-70.6 2.5-105.8.6-26.6 1.1-53.3 1.7-79.9 1.1-45.9 2.2-91.8 3.3-137.8.6-26.6 1.2-53.3 1.7-79.9.1-6.8 0-13.6 0-20.6-9.1 2-17.8 6.3-27.2 8.1-.4-1.3.7-1.8 1.3-2.4C30.2 73.3 47.6 40.5 62.1 6c.5-1.3.6-3 2.4-3.8 12.9 37.6 28.7 73.6 54.6 104.3-1.7 1.2-2.7 0-3.8-.4-6-2.3-12.1-4.6-18-7.2-3.3-1.5-4.2-.8-4.3 2.8-.6 22.8-1.4 45.6-2.1 68.4-1.5 44.4-3.2 88.8-4.6 133.2-1.3 37.3-3 74.7-5.3 112-1 15.8-2.4 31.5-3.6 47.3-.1 1.8-.3 3.6-.5 6.4C148.6 365.9 230.3 271.8 306 172.5c-8.7-3.1-17.5-6.1-26.2-9.2 20-3.6 38.8-9.7 57.2-17.4 18.3-7.6 35.8-16.6 53.8-27.5-6.8 19.9-12 39.1-15.6 58.7-3.6 19.5-5.4 39.2-4.8 59.4-5.3-8.6-10.5-17.2-16.1-26.3-33.6 41.3-67 82.3-101 124 6.2-.8 11.3-2.2 16.5-2.6 18.9-1.5 35.7 10.1 39.5 27.9 1.8 8.4-.2 16.2-4 23.6-9.2 18.1-23.5 31.7-39.2 44-12.5 9.8-26.3 17.4-41.2 23-2.7 1-6.8.7-6.3 5.9.6 5.9 2.8 9.6 7.6 11.1 4.5 1.4 8.9.6 13.2-.7 9.9-3 18.4-8.3 26.1-15.2 51.7-46.5 96.3-98.8 128.7-160.7 5.5-10.6 9.8-21.8 14.9-32.6 2.9-6 6.3-11.8 11-16.6 5.2-5.3 11.1-6.4 17-1.9 12.1 9.2 19.7 21.4 22.5 36.5.5 3-.2 6-1.5 8.8-15.3 32.1-30.6 64.1-46 96.2 3.3.8 4.6-2.2 6.3-3.9 12.7-11.8 25.5-23.5 39.7-33.4 4.9-3.4 10-6.5 15.5-9.1 7.6-3.6 15.4-3.8 23.3-1 11.4 4 16.3 12.1 14.2 24-1.8 10.2-6.4 19.3-13.4 26.9-8.4 9-19.6 10.3-32.5 4-.3-.1-.6-.3-.9-.4-9.1-4.7-12.5-4.3-19.9 2.9-.6.5-1.5.8-1.2 1.9.3 1 1.2 1 2 1.1h2.5c12.6.1 16.7 5 14.9 17.6-.9 6.1-2 12.1-2.9 18.2-.3 2.1-.1 4.3.2 6.5.8 4.8 4 6.4 8.3 3.8 6.9-4.2 12.7-9.7 18.3-15.4 20.9-21.3 39.5-44.6 59.4-67.2-3.8-2.1-7.2-4-8.1-8.5-1.5-7.3 2-14.1 9.1-16.7 5.7-2 11.7-2.6 17.7-2.6 2.9 0 5-1 6.7-3.3 7-9.5 12.4-20.1 18.7-30.1 3.8-6 7.3-12.3 11.1-18.4 5.8-9.3 13.2-10.3 20.9-2.6 4.3 4.4 8.4 9.1 12 14 6.9 9.5 6.3 19.9 2.7 30.5-1.1 3.3-2.6 6.4-4.1 10.1 6.5.7 12.7.6 18.8 2 10.1 2.4 11.2 6.2 6.1 15.2-4.9 8.7-11.4 12.1-21.2 11.2-6.2-.6-13.7-2-18.6.7-4.6 2.6-6.5 10.1-9.7 15.3-12.4 20.3-22.7 41.7-33.3 62.9-1.6 3.1-2.7 6.4-2.8 10-.1 3.7 1.5 4.8 5 3.9 3.4-.9 6.4-2.5 9.3-4.5 20.7-14.3 35.7-34.2 52.1-52.7 16.7-18.8 33.8-37.3 54.7-51.6 12.6-8.6 26.1-15.3 41.8-16.1 22.8-1.2 39.7 14.6 40.3 37.5.5 17.6-4.9 33.7-11.5 49.6-.6 1.4-1 2.9-1.8 4.1-3.3 5.1-4.8 10.1.1 15.3 3.9-1.1 6.8-4.2 9.7-7.5 16.3-18.5 32.4-37.1 45.5-58.1 1.6-2.6 2-4.3-.2-6.8-4.4-4.9-5.3-10.9-4.9-17.3 1-16.9 13.2-33 27.5-36.1 18.3-4 28.7 6.4 24.6 24.7-.3 1.5-.7 3-1.3 4.3-1.6 3.3 0 4 2.9 4.3 6.6.5 12.9-.8 19.1-2.8 6.8-2.2 13.5-4.5 20.7-5.4 13.2-1.7 19.1 5.9 18.2 18.9-.5 7.7-4.4 14.2-7.8 20.9-10.8 21.2-20.2 43-29.9 64.6-1.5 3.3-2.7 6.8-1.7 10.6 2.5 0 4.1-1.3 5.7-2.9 8.3-8.2 16.6-16.3 24.9-24.6 6.4-6.5 13.6-5.9 21.2 1.7-.1 2.2-.1 4.6-.1 6.9zm-310.3 10c-1.4 8.3-2.1 15.9-1.6 23.6 1.2 21.8 16.2 36.1 37.9 36.1 11.7 0 22.7-3.1 33-8.7 13.5-7.4 24.3-18 33.7-30 2.1-2.7 3.5-4.5 7.4-2.3 3.6 2.1 8.1 1.6 12.2.8 16.4-3.2 28.2-13.5 38.8-25.6 16.9-19.3 33-39.3 48.6-59.6 5.4-7 6.6-7.3 15-5.1 7.4 2 10.5 7.3 8.8 14.8-1.8 7.8-6.2 14.3-11 20.5-8.9 11.4-17.8 22.8-25.4 35.2-5.5 9.1-10.7 18.4-13 29-3.1 14.1 6.1 27.7 20.2 30.5 8.6 1.7 16.5-.6 24.1-4.4 18-8.8 33.7-20.8 47.9-34.7 9.5-9.3 18.7-19 26.6-29.8 1.2-1.7 2.7-3.4.7-5.7-1.8-2.2-3.9-2.9-6.6-2-1.8.6-3.2 1.6-4.5 3-8.3 8.2-16.6 16.4-24.8 24.6-1.7 1.7-3.7 2.9-5.9 3.7-6 2.1-9.4-.4-9.5-6.8 0-4.2 1.2-8.2 2.9-12.1 10.4-23 20.5-46.2 31.9-68.7 1.7-3.4 3.6-6.9 4.3-10.6 2.3-12.2-1.1-19.3-15.3-15.7-8.1 2-15.9 4.8-24 6.7-6.9 1.6-13.8 1.9-20.6-1.1-2.6-1.2-3.5-2.3-2-5.2 2.5-4.8 3.9-9.9 3.7-15.4-.3-6.2-3.4-9.9-9.5-11-8.7-1.5-16.2 1.2-22.1 7.7-5.7 6.3-8.9 14-10.4 22.4-1.1 6.7.6 12.8 5.9 17.1 3 2.5 2.4 4.1.7 6.9-13.9 23.1-31.1 43.6-49 63.6-5.1 5.7-11.2 9-18.8 10.2-.6-3.1.8-7.1-1.6-8.7-5.6-3.8-1.7-7.2-.4-10.8.9-2.3 2.2-4.5 3.2-6.8 6.7-15.5 12.5-31.2 12.3-48.5-.3-21.9-16.1-35.7-37.5-33.3-13.7 1.5-25.4 7.6-36.4 15.2-22.5 15.6-40.3 36.2-58.6 56.2-10 10.9-17.7 23.8-29.6 33-5.9 4.6-11.8 9.3-17.5 14.2-3.8 3.3-8.1 5.2-12.9 6.1-6.2 1.2-10.4-2-10.7-8.4-.2-4.8 1.2-9.2 3.3-13.4 13.2-27.1 27.2-53.7 42.9-79.4 1.2-2 2.4-2.8 4.7-2.7 7.7.1 15.3.1 23 0 2.8 0 6 .3 7.8-2.3 2.5-3.6 7.7-7.4 6.1-11.2-1.4-3.5-7.6-2.8-11.9-3.1-6.2-.4-12.4-.6-19.2-1 2-3.8 3.7-7 5.3-10.3 4.1-8.5 7.4-17.2 3.9-26.9-2.3-6.5-7.3-11.1-11.6-16.1-7.6-8.7-10.7-8.3-16.6 1.5-8 13.4-16.1 26.8-24.1 40.2-4.4 7.3-9.4 13-19.3 11.7-4.7-.6-9.6.7-14 3-3.7 2-4.2 5.5-3.6 9.1.6 3.4 3.5 4.2 6.4 4.4 2.4.2 4.8 0 7.7 0-.8 1.2-1 1.6-1.3 2-18.8 21.8-37.5 43.7-56.5 65.4-8.1 9.3-17.1 17.8-27.4 24.7-8.5 5.7-16.1 2.1-17.7-8-1.1-6.6.5-12.9 1.7-19.3 3.2-17 .7-19.6-16.6-16.9-5.1.8-10.2 1.5-15.4 2.3 5.5-5.9 11.5-10.9 17.4-16 8.1-7 15.8-9.7 26.4-2.9 10.8 7 19.7 4.7 27.2-4.1 5.3-6.2 8.8-13.4 10.6-21.3 1.4-6.3.9-12.5-5.2-16.4-6.8-4.3-14.1-5.9-21.9-2.9-6.9 2.7-13.1 6.6-19 10.9-21.7 15.9-40.8 34.7-59.6 53.8-1.9 1.9-3.2 4.6-6.8 4.9 1.1-2.2 2-4.1 2.9-6 18.9-39.4 37.7-78.9 56.6-118.3 1.2-2.5 2.1-5.1 1.6-7.7-2.6-13.5-9.7-24.2-20.5-32.6-3.1-2.4-6.2-1.7-9 1-2.8 2.9-5 6.2-7.1 9.6-6.5 10.9-10.7 22.9-16.2 34.2-19.6 40.5-45.8 76.4-75.7 109.7-17.8 19.8-35 40.2-55.9 56.9-9.7 7.8-19.8 14.7-32.1 17.4-15.8 3.4-24.9-4.2-24.4-20.4.1-3 1.2-4.3 4-5.2 28.3-9.2 51.6-25.9 71-48.2 5.7-6.5 10.7-13.6 13.9-21.8 6.7-16.9-2.7-34.8-20.6-39-11.6-2.7-22.5-.1-33 4.6-22.4 10.1-40.7 25.8-57.3 43.5-10.3 11.1-19.9 22.8-30 34.1-3 3.3-6.7 6-9.8 9.2-2.9 2.9-1.5 5.8.7 8.4 2.1 2.6 4.5 2.4 7 .5 1-.8 2.2-1.5 3.2-2.4 1.3-1.3 2.4-1.4 3.7.1 1.1 1.2 2.1 2.1.6 3.8-3.5 4-3.8 9.1-4.5 14-2.8 19.2 12.9 41.4 32 45.1 14.8 2.9 28.8-.5 42.3-6.4 25.9-11.2 46.8-29.3 65.7-49.7 18.3-19.8 34.6-41.4 50.9-62.9 1.2-1.5 1.6-5.3 5.4-2.7 3.7 2.6.3 4.5-.6 6.2-9.6 18-19.6 35.9-29.2 54-7.9 15-15.9 30-21.3 46.1-2.8 8.1.3 12.2 8.8 13.4 11 1.6 19.6-2.2 27-10.5 13.7-15.3 26.5-31.2 39.7-46.9 2.7-3.2 5.2-6.6 8.7-8.8 4.4-2.8 8.4-1.2 9.4 3.9.6 3.3.3 6.6-.2 9.9-1.6 11-5.6 21.6-7.1 32.6-1.6 12.1 5.9 20.6 18.1 20.1 5.3-.2 10.6-1.2 15.6-2.9 15.8-5.4 28.7-15.2 40.4-26.8 23.2-23.1 45.3-47 65.3-72.9 1.2-1.6 2-3.9 5-1.8 2.8 2 .9 3.3.1 4.9-2.5 4.7-5.3 9.2-7.8 13.9-9.2 17.3-18.3 34.8-22.7 54.1-3 13.4 4.9 26.3 18.2 30 9.5 2.7 18.2-.2 26.5-4.1 20.5-9.6 38.4-23.2 55.6-37.7 6-4.2 11.6-9.6 17.8-15.3zM20.5 92.2c4.1-1.3 8.2-2.5 12.2-4 3-1.1 3.6-.3 3.4 2.7-.4 7.5-.4 15-.6 22.5l-3 130.8c-.7 29-1.3 57.9-2 86.9-.7 29-1.3 57.9-2 86.9-.8 32.4-1.5 64.9-2.4 97.3-.1 3.1.8 4.7 3.9 5.8 15.3 5.2 30.5 10.5 45.6 16.1 3.6 1.3 5.3.3 7.4-2.3l57-70.2c5.1-6.3 10.1-12.5 15.3-19-11.5-4.1-14.7-14.4-6.5-21.2 9.7-8.1 17.5-17.8 25.5-27.4 18.8-22.3 39.6-42.3 65.5-56.3 1.8-1 3.1-2.5 4.4-4 13.7-16.8 27.3-33.6 41-50.4 22.3-27.4 44.6-54.7 66.8-82.2 2.8-3.5 3.9-2.5 5.7.7 2.2 3.7 4 7.7 7.6 11.6 1.2-29.6 7.3-57.5 15.6-85.8-26 14.3-52.1 25.9-80.8 33.6 1.4.7 1.9 1 2.3 1.2 2.5.9 5 1.7 7.5 2.6 5.5 1.9 5.6 1.9 1.9 6.5-38.8 49-77.5 98-116.3 146.8-40.8 51.3-82.1 102.5-118.1 157.6-1.2 1.8-2 3.2-4.7 2.2s-2.2-2.8-2-4.8c1.1-11.4 2.2-22.9 3.1-34.3 3.1-41.3 5-82.7 6.6-124.1 1.1-28.6 2-57.2 3-85.8 1.4-40.4 2.7-80.8 4-121.2.2-7 0-14.1 0-21.8 5.9 2.3 10.5 4 16 6.2-17.3-24.8-29.2-51-39.7-78.6-12.2 27-25.9 52-43.2 75.4z"/><path fill="#101010" d="M615 548c3-6.5 2-13.4 2.1-20.3 0-1.2-.1-2.3-.1-3.5.1-1.6-4.9-1.8-1.3-4.2 2.6-1.8 8.1.1 9.4 2.9 1.8 4.1 3.5 8.2 5.5 12.9 2.9-3.5 3.7-7.5 5.4-11.1 2.1-4.6 5.3-6.2 9.8-4.9 1.2.4 2.6 1.4 1.3 2.3-3.4 2.1-2.3 5.3-2.1 8 .5 5.3-2.4 11.2 2.2 16 .1.1-.8 1.2-1.2 1.9h-8c-1.9-2.9 2.3-3.4 2.2-5.8-.3-4.9-.1-9.8-.1-14.6-2.5 3.6-4.2 7.2-5.9 11-.7 1.7-1.3 3.5-3.6 3.6-2.6.1-3.1-2-3.9-3.8-1.6-3.5-3.2-7.1-4.8-10.6.7 6.2-3.6 12.9 1.8 18.4.7.7-1.7.7-1.8 1.8H615z"/><path fill="#0D0D0D" d="M702 548c-.2-.6-.8-1.6-.6-1.8 5.8-6.5 1.3-14.2 2.7-21.3 0-.2-.1-.3 0-.5.4-1.7-5.3-2.2-1.1-4.5 3.2-1.7 7.7.2 9.1 3.4 1.8 4.1 3.5 8.2 5.4 12.7 2.7-3.9 3.8-8.2 5.7-12.2 1.6-3.6 6.3-5.5 9.9-3.9 1 .4 2 1.4.9 2.2-4 2.7-2.1 6.7-2 10 .1 4.7-2.2 9.9 2.2 14 .1.1-.8 1.2-1.2 1.9h-8c-2.3-2.9 2.2-3.3 2.1-5.6-.3-4.9-.1-9.8-.1-14.7-2.5 3.6-4.3 7.5-6 11.3-.7 1.5-1.3 3.1-3.4 3.2-2.3 0-3-1.6-3.7-3.4-1.6-3.8-3.4-7.6-5.1-11.4.8 6.3-3.8 13.1 1.9 18.7 0 0-1.1 1.3-1.6 1.9H702z"/><path fill="#101010" d="M231 548c3.4-6.6 2.4-13.8 2.4-20.8 0-1.1.2-2.8-.4-3.4-5.9-5.6.4-3.8 2.5-3.9 2.8-.3 5.7-.1 8.5.1 3 .2 5.5 1.2 6.5 4.5.9 3 .4 5.7-2 7.7-1.7 1.4-2.2 2.2-.6 4.2 2.3 2.9 2.8 6.9 6.5 9.1 2.3 1.3-1.4 1.4-1.3 2.6h-4c-1.6-2.2-3-4.5-4-7.1-1.1-2.8-2.9-5-6-5.9-.8-4 2.9-2.6 4.5-3.7 2.2-1.4 2.9-3.2 2.1-5.5-.9-2.4-3.2-2.7-5.4-2.7-3.1 0-2 2.5-2 4-.1 2.6.1 5.3.2 7.9.2 3.7-1.6 7.6 2.3 10.7 1.4 1.1-1.6 1-1.6 2.2H231zM312 548c-5.3-4.8-7.5-10.6-6.1-17.8 1.3-6.6 5.7-10.9 12.1-11 6.6-.2 11 3.5 12.4 10.5 1.5 7.7-.7 13.9-7.4 18.4-3.7-.1-7.3-.1-11-.1zm-1.2-15.1c.1 2.1.1 3.2.2 4.4.5 4.2 2.4 7.5 7.1 7.5 4.4 0 6.3-2.9 7.1-6.9.6-3.2.5-6.3-.3-9.4-.8-3.1-2.7-5.3-6.2-5.5-3.7-.2-6 1.7-7.1 5-.6 1.8-.7 3.8-.8 4.9z"/><path fill="#0B0B0B" d="M463 548c-.2-.6-.8-1.5-.6-1.8 5.6-6.5 1.3-14.2 2.6-21.3 0-.2-.1-.3 0-.5.4-2-4.2-1.6-2.1-3.9 1.5-1.7 4.1-.6 6.2-.7 2.2-.1 4.3 0 6.5.1 2.8.2 5.3 1.2 6.3 4 1 3 1 6.2-1.8 8.1-2.5 1.7-1.5 2.8-.3 4.6 1.9 3 2.4 6.8 6.2 8.7 2.4 1.2-1.2 1.5-1 2.7h-4c-1.8-2.2-3.3-4.4-4.3-7.1-1.1-3.1-3.3-5.4-6.9-6.5.7 4.1-1.7 8.4 2.6 11.6.9.7-1.6.8-1.4 2h-8zm6.2-14.5c4.2-2.1 9-1.8 8-7.2-.5-2.8-3.4-3.9-5.4-3-4.5 2-.7 6.3-2.6 10.2z"/><path fill="#101010" d="M391 548c-6.2-5.2-8.7-11.6-6-19.5 2.5-7.5 12.7-11.8 19.8-8.5 1.8.8 2.4 2.1 2.3 4-.1 1.3-.7 2.3-1.9 2.7-1.7.5-2.2-1-2.8-2.2-1.3-2.8-3.8-1.6-5.7-1.3-5 .8-7.8 5.5-7.5 11.9.3 5.8 3.3 9.3 8.6 9.7 1.4.1 3.5.8 4-1 .4-1.8 1.6-4.3-1-5.7-.9-.5-1.9-.9-1.3-2.2.5-1.1 1.6-1.1 2.6-1.1h4.5c2.4.1 4.1.9 1.4 3-1.6 1.3-1.1 2.7-1 4 .3 2.8-.7 4.7-2.9 6.1-4.4.1-8.8.1-13.1.1zM537 548c-.3-.7-1.1-1.8-.8-2.1 5.2-6.4 5.7-14.5 8.8-21.7.9-2.1 1.3-4.8 4.2-4.9 3.3-.2 3.7 2.7 4.5 5 2.8 7.1 3.6 15 8.4 21.4.8 1.1-1.1 1.4-1.1 2.4h-7c-.4-1-1.6-1.8-.2-3 2.4-2 .5-4.6-.6-5.6-2.2-1.9-5.5-1.4-8-.5-1.9.6-2.9 3.5-1.7 5.4 1.1 1.8.4 2.5-.5 3.7-2-.1-4-.1-6-.1zm15.1-13.2c-1-3-1.8-5.7-2.7-8.3-.1-.2-.5-.3-.8-.5-3.6 9.4-3.6 9.4 3.5 8.8z"/><path fill="#0D0D0D" d="M788.9 547c3.5-6.4 1.6-13.3 2-20 .1-1.1.3-2.8-.4-3.4-5.5-4.8 0-3.7 2.1-3.8 4.2-.2 8.3-.1 12.5-.1 1.7 0 3 .4 3.2 2.3.2 1.2.1 2.4-1 3.2-1.7 1.2-2.2-.7-3.2-1.3-2.4-1.5-5.6-1.5-7.6-.4-2.1 1.2-1.1 4.6-.7 6.9.5 2.5 3.1.9 4.7 1.2 1.5.3 3.9-.5 4 1.8 0 1.6-2.2 1.5-3.6 1.7-1.7.3-4.5-1.5-5 1.4-.4 2.3-1.3 5.7.4 7.2 1.8 1.6 5.1.9 7.6.3 1.3-.3 1.7-3.5 3.8-2 2.2 1.6.6 3.9.1 5.9h-2c-5.4-2-11.2-.3-16.9-.9zM158 548c3-6.7 2.1-13.7 2.1-20.7 0-1.3.5-2.7-.6-3.8-.8-.8-2.8-1.1-1.6-2.9.8-1.3 2.4-.8 3.7-.8 2.3 0 4.7 0 7 .1 7 .4 10 3.4 9.3 9.4-.7 5.4-5.5 8.1-12 6.8-.4-2.4 1.2-2.6 2.9-3 3.3-.8 4.6-3.1 4-6.3-.6-3-3.1-3.6-5.7-3.6-3.3 0-1.9 2.5-1.9 4-.1 3 .1 5.9.2 8.9.1 3.3-1.9 6.8 2.1 9.4 2 1.3-1.4 1.4-1.4 2.5H158z"/><path fill="#0A0A0B" d="M868 548c-.2-.8-1.4-1.4-.7-2.2 6-6.6 1.6-14.4 2.4-21.6.2-1.9-3.1-1.8-4.8 0-.8.8-1.4 2.1-2.8 1.4-1.4-.7-1.3-2.2-1.2-3.5.1-1.8 1.3-2.2 2.7-2.2h18c1.5 0 2.5.8 2.6 2.4.1 1.2.2 2.4-1 3.1-1.6 1.1-2.5-.2-3.1-1.3-1-1.8-2.7-1.1-4-1-2.1.2-1.2 2.1-1.2 3.2-.1 4.8-.1 9.7 0 14.5 0 1.6-.3 3.1 1.8 4.1 2.5 1.2-.3 2.1-.6 3.1H868z"/><path fill="#F7F7F7" d="M709 548c.6-.7 1.7-1.9 1.6-1.9-5.6-5.6-1.1-12.4-1.9-18.7l5.1 11.4c.7 1.7 1.4 3.4 3.7 3.4 2.1 0 2.7-1.7 3.4-3.2 1.7-3.8 3.5-7.7 6-11.3 0 4.9-.2 9.8.1 14.7.1 2.4-4.3 2.7-2.1 5.6H709z"/><path fill="#F4F4F4" d="M622 548c.1-1.1 2.5-1.1 1.8-1.8-5.4-5.6-1.1-12.2-1.8-18.4 1.6 3.5 3.2 7 4.8 10.6.8 1.8 1.3 3.9 3.9 3.8 2.3-.1 2.8-1.9 3.6-3.6 1.6-3.7 3.3-7.4 5.9-11 0 4.9-.2 9.8.1 14.6.1 2.4-4.1 2.9-2.2 5.8H622z"/><path fill="#F7F7F7" d="M543 548c.8-1.1 1.6-1.9.5-3.7-1.2-1.9-.2-4.8 1.7-5.4 2.5-.8 5.9-1.4 8 .5 1.1 1 3 3.6.6 5.6-1.4 1.2-.2 2 .2 3h-11z"/><path fill="#F4F4F4" d="M471 548c-.1-1.1 2.3-1.3 1.4-2-4.4-3.1-2-7.5-2.6-11.6 3.7 1 5.8 3.3 6.9 6.5 1 2.7 2.5 4.9 4.3 7.1h-10z"/><path fill="#F7F7F7" d="M239 548c0-1.2 3-1.1 1.6-2.2-3.9-3.1-2.1-7.1-2.3-10.7l.3.1.3-.1c3.1.8 4.9 3 6 5.9 1 2.6 2.4 4.9 4 7.1-3.2-.1-6.6-.1-9.9-.1z"/><path fill="#434343" d="M788.9 547c5.7.5 11.5-1.1 17.1 1h-17c0-.3 0-.6-.1-1z"/><path fill="#EEE" d="M165.3 536c-.1-3-.4-5.9-.2-8.9.1-1.4-1.3-4 1.9-4 2.6 0 5.1.5 5.7 3.6.6 3.2-.6 5.5-4 6.3-1.7.4-3.3.6-2.9 3h-.3c.1.1-.2 0-.2 0z"/><path fill="#A9DDF1" d="M625.7 438c-6.3 5.7-11.9 11.1-17.8 16.1-17.2 14.5-35.1 28.1-55.6 37.7-8.4 3.9-17 6.8-26.5 4.1-13.2-3.7-21.2-16.7-18.2-30 4.4-19.4 13.5-36.8 22.7-54.1 2.5-4.7 5.2-9.3 7.8-13.9.8-1.5 2.7-2.9-.1-4.9-3-2.1-3.8.2-5 1.8-20 25.9-42.1 49.8-65.3 72.9-11.7 11.6-24.6 21.4-40.4 26.8-5.1 1.8-10.3 2.7-15.6 2.9-12.2.5-19.7-8-18.1-20.1 1.4-11.1 5.5-21.6 7.1-32.6.5-3.3.9-6.7.2-9.9-1-5.1-4.9-6.7-9.4-3.9-3.6 2.3-6.1 5.6-8.7 8.8-13.1 15.7-26 31.7-39.7 46.9-7.4 8.3-16 12-27 10.5-8.5-1.2-11.5-5.3-8.8-13.4 5.5-16.1 13.4-31.1 21.3-46.1 9.6-18.1 19.5-35.9 29.2-54 .9-1.7 4.3-3.6.6-6.2-3.8-2.7-4.2 1.1-5.4 2.7-16.3 21.5-32.6 43-50.9 62.9-18.8 20.4-39.8 38.4-65.7 49.7-13.5 5.9-27.4 9.3-42.3 6.4-19.1-3.7-34.9-25.9-32-45.1.7-4.9 1-10 4.5-14 1.4-1.6.4-2.6-.6-3.8-1.3-1.5-2.4-1.4-3.7-.1-.9.9-2.1 1.6-3.2 2.4-2.5 2-4.8 2.1-7-.5s-3.6-5.5-.7-8.4c3.2-3.2 6.9-5.9 9.8-9.2 10.1-11.3 19.7-23 30-34.1 16.6-17.7 34.8-33.5 57.3-43.5 10.5-4.7 21.4-7.3 33-4.6 17.8 4.1 27.3 22 20.6 39-3.2 8.2-8.2 15.2-13.9 21.8-19.4 22.3-42.7 39-71 48.2-2.8.9-3.9 2.2-4 5.2-.5 16.2 8.6 23.8 24.4 20.4 12.4-2.7 22.4-9.6 32.1-17.4 20.9-16.8 38.1-37.1 55.9-56.9 29.9-33.3 56.1-69.3 75.7-109.7 5.5-11.4 9.7-23.4 16.2-34.2 2.1-3.4 4.2-6.8 7.1-9.6 2.7-2.8 5.9-3.4 9-1 10.8 8.3 17.9 19.1 20.5 32.6.5 2.6-.4 5.2-1.6 7.7-18.9 39.4-37.7 78.9-56.6 118.3-.9 1.9-1.8 3.7-2.9 6 3.6-.2 5-3 6.8-4.9 18.8-19.1 37.9-37.9 59.6-53.8 5.9-4.3 12.1-8.2 19-10.9 7.8-3 15.1-1.4 21.9 2.9 6.1 3.9 6.6 10.1 5.2 16.4-1.8 7.9-5.3 15.1-10.6 21.3-7.5 8.8-16.4 11.1-27.2 4.1-10.5-6.8-18.2-4.1-26.4 2.9-5.9 5.1-11.9 10.1-17.4 16 5.1-.8 10.2-1.5 15.4-2.3 17.4-2.7 19.8-.1 16.6 16.9-1.2 6.3-2.8 12.7-1.7 19.3 1.7 10.1 9.3 13.7 17.7 8 10.3-6.9 19.2-15.5 27.4-24.7 19-21.6 37.7-43.5 56.5-65.4.3-.4.5-.8 1.3-2-2.9 0-5.3.1-7.7 0-2.9-.2-5.9-1-6.4-4.4-.6-3.6-.1-7.1 3.6-9.1 4.3-2.4 9.3-3.7 14-3 9.9 1.4 14.9-4.4 19.3-11.7 8-13.4 16.1-26.8 24.1-40.2 5.9-9.9 9-10.3 16.6-1.5 4.3 5 9.3 9.6 11.6 16.1 3.5 9.6.1 18.3-3.9 26.9-1.6 3.3-3.3 6.5-5.3 10.3 6.7.3 12.9.6 19.2 1 4.3.3 10.5-.4 11.9 3.1 1.5 3.8-3.7 7.6-6.1 11.2-1.8 2.6-5 2.3-7.8 2.3-7.7.1-15.3.1-23 0-2.3 0-3.5.8-4.7 2.7-15.8 25.7-29.8 52.3-42.9 79.4-2.1 4.2-3.5 8.7-3.3 13.4.3 6.4 4.5 9.6 10.7 8.4 4.8-1 9.1-2.9 12.9-6.1 5.7-4.9 11.5-9.6 17.5-14.2 11.9-9.2 19.7-22.1 29.6-33 18.3-20 36.1-40.6 58.6-56.2 11-7.6 22.7-13.7 36.4-15.2 21.5-2.4 37.3 11.4 37.5 33.3.2 17.2-5.5 33-12.3 48.5-1 2.3-2.3 4.5-3.2 6.8-1.4 3.6-5.2 7 .4 10.8 2.4 1.6 1 5.7 1.6 8.7 7.6-1.2 13.7-4.5 18.8-10.2 17.9-20 35.1-40.6 49-63.6 1.7-2.7 2.3-4.4-.7-6.9-5.3-4.3-7-10.5-5.9-17.1 1.4-8.3 4.7-16 10.4-22.4 5.9-6.5 13.4-9.2 22.1-7.7 6.2 1 9.3 4.7 9.5 11 .2 5.5-1.2 10.6-3.7 15.4-1.5 2.9-.6 4.1 2 5.2 6.8 3 13.7 2.7 20.6 1.1 8.1-1.9 16-4.6 24-6.7 14.1-3.6 17.5 3.5 15.3 15.7-.7 3.7-2.6 7.2-4.3 10.6-11.5 22.5-21.5 45.7-31.9 68.7-1.7 3.8-2.9 7.8-2.9 12.1 0 6.3 3.5 8.8 9.5 6.8 2.2-.8 4.2-2 5.9-3.7 8.3-8.2 16.6-16.4 24.8-24.6 1.3-1.3 2.7-2.4 4.5-3 2.7-.9 4.8-.2 6.6 2 2 2.3.5 4-.7 5.7-7.9 10.8-17 20.5-26.6 29.8-14.3 13.9-30 25.9-47.9 34.7-7.6 3.7-15.5 6-24.1 4.4-14.2-2.8-23.3-16.3-20.2-30.5 2.3-10.5 7.5-19.9 13-29 7.5-12.4 16.5-23.8 25.4-35.2 4.8-6.2 9.2-12.7 11-20.5 1.7-7.5-1.4-12.8-8.8-14.8-8.4-2.2-9.6-1.9-15 5.1-15.7 20.3-31.8 40.2-48.6 59.6-10.6 12.1-22.3 22.4-38.8 25.6-4.2.8-8.6 1.3-12.2-.8-3.9-2.2-5.3-.4-7.4 2.3-9.4 12-20.2 22.6-33.7 30-10.3 5.6-21.2 8.7-33 8.7-21.7.1-36.7-14.3-37.9-36.1-.4-8.5.2-16.1 1.6-24.4zm123.7-66.8c.3-6.4-.2-11.3-5-14.1-4.7-2.7-9.6-2.3-14.3 0-1.8.9-3.5 2-5 3.3-3 2.9-6.1 5.7-8.7 9-15.6 20.3-27.6 42.7-37 66.4-2.1 5.4-3.5 11.1-3.1 17.1.8 11.5 11.8 17.9 22 12.7 8-4 11.6-11.6 15.5-19 2.2-4.3-1.5-7.1-2.6-10.6-5.2-16.9 2.1-26.3 19.7-24.9.5 0 1 .1 1.5.2 1.3.3 2.1-.1 2.7-1.4 6.4-12.8 13-25.5 14.3-38.7zm-470.1-1c-.1-3.8.2-7.3-3.3-9.3-3.8-2.1-7.1-.5-10.2 1.6-1.8 1.2-3.4 2.6-5 4.2-8.8 8.9-16.4 18.7-23.4 29.1-2.3 3.4-4.2 7.2-4.6 11.4-.6 6.8 4.3 10.5 10.8 8.3 2.4-.8 4.5-2.2 6.4-3.8 7.3-5.8 14-12.3 20-19.4 5.6-6.5 9.1-13.9 9.3-22.1z"/><path fill="#6FCCEA" d="M20.5 92.2c17.2-23.4 31-48.4 43.1-75.4C74.1 44.4 86 70.6 103.3 95.4c-5.5-2.1-10.1-3.9-16-6.2 0 7.7.2 14.8 0 21.8-1.3 40.4-2.6 80.8-4 121.2-1 28.6-1.9 57.2-3 85.8-1.6 41.4-3.5 82.8-6.6 124.1-.9 11.4-2 22.9-3.1 34.3-.2 2-.7 3.8 2 4.8 2.6 1 3.5-.4 4.7-2.2 36-55.1 77.4-106.3 118.3-157.8 38.9-48.9 77.6-97.9 116.3-146.8 3.7-4.6 3.7-4.6-1.9-6.5-2.5-.8-5-1.7-7.5-2.6-.5-.2-.9-.4-2.3-1.2 28.6-7.7 54.8-19.3 80.8-33.6-8.4 28.4-14.4 56.2-15.6 85.8-3.6-3.9-5.5-7.9-7.6-11.6-1.8-3.1-2.8-4.2-5.7-.7-22.2 27.5-44.5 54.8-66.8 82.2-13.7 16.8-27.3 33.6-41 50.4-1.3 1.6-2.5 3.1-4.4 4-26 14-46.7 34-65.5 56.3-8 9.5-15.8 19.2-25.5 27.4-8.1 6.8-5 17.1 6.5 21.2-5.2 6.4-10.2 12.7-15.3 19-19 23.4-38.1 46.7-57 70.2-2.1 2.6-3.8 3.7-7.4 2.3-15.1-5.6-30.3-10.9-45.6-16.1-3.1-1.1-4-2.6-3.9-5.8.9-32.4 1.6-64.9 2.4-97.3.7-29 1.3-57.9 2-86.9.7-29 1.3-57.9 2-86.9l3-130.8c.2-7.5.2-15 .6-22.5.1-3-.4-3.8-3.4-2.7-4 1.7-8.2 2.8-12.3 4.2z"/><path fill="#DEDEDE" d="M239 535l-.3.1-.3-.1c-.1-2.6-.3-5.3-.2-7.9.1-1.5-1.1-4 2-4 2.2 0 4.5.3 5.4 2.7.8 2.2.1 4-2.1 5.5-1.6 1-5.3-.3-4.5 3.7z"/><path fill="#F9F9F9" d="M310.8 532.9c.2-1.1.2-3.1.8-5 1.1-3.3 3.4-5.2 7.1-5 3.5.2 5.4 2.4 6.2 5.5.8 3.1.8 6.2.3 9.4-.7 4-2.7 6.9-7.1 6.9-4.7 0-6.5-3.3-7.1-7.5-.1-1.1-.1-2.3-.2-4.3z"/><path fill="#F4F4F4" d="M469.2 533.5c1.9-4-1.9-8.3 2.7-10.2 2-.8 4.9.2 5.4 3 .9 5.5-3.9 5.1-8.1 7.2z"/><path fill="#EEE" d="M552.1 534.8c-7.1.6-7.1.6-3.5-8.8.3.2.7.3.8.5.9 2.7 1.8 5.3 2.7 8.3z"/><path fill="#0B0B0B" d="M749.4 371.2c-1.3 13.2-7.9 25.9-14.2 38.8-.6 1.3-1.4 1.7-2.7 1.4-.5-.1-1-.1-1.5-.2-17.6-1.4-24.9 8-19.7 24.9 1.1 3.4 4.8 6.2 2.6 10.6-3.8 7.4-7.5 15-15.5 19-10.2 5.1-21.2-1.3-22-12.7-.4-5.9 1-11.6 3.1-17.1 9.4-23.8 21.4-46.1 37-66.4 2.5-3.3 5.6-6.1 8.7-9 1.4-1.3 3.2-2.4 5-3.3 4.7-2.3 9.7-2.8 14.3 0 4.7 2.7 5.1 7.6 4.9 14zm-23.1 33.9c4.7.2 4.9.3 5.7-1.2 5.4-11.2 11.2-22.3 12-35 .4-7.3-4.5-10.2-11.1-7-3.5 1.7-6.4 4.2-8.9 7.1-17.9 21.8-30.9 46.3-40.6 72.6-1.1 3.1-1.6 6.4-1.5 9.8.1 4.1 1.3 7.5 5.2 9.4 4.1 2 7.8 1 11.2-1.6 4-3.1 6.6-7.4 9-11.8 1.2-2.2 1.6-4 .3-6.4-2.2-4.2-2.9-8.8-3.1-13.5-.5-14 8.1-22.9 21.8-22.4z"/><path fill="#090909" d="M279.3 370.2c-.2 8.2-3.8 15.6-9.2 22.1-6 7.1-12.7 13.6-20 19.4-2 1.5-4 2.9-6.4 3.8-6.4 2.3-11.4-1.5-10.8-8.3.4-4.3 2.2-8 4.6-11.4 7-10.3 14.6-20.2 23.4-29.1 1.5-1.5 3.2-2.9 5-4.2 3.1-2.2 6.4-3.7 10.2-1.6 3.4 2 3.2 5.5 3.2 9.3zm-5.3 0c-.3-1.4.7-3.2-.9-4.2-1.7-1.1-3.3.2-4.5 1.2-11.9 10.8-22.1 23-29.5 37.3-.8 1.6-2.2 3.8-.3 5.5 2.2 1.9 4.2-.1 5.8-1.3 9.2-6.9 17.6-14.8 24.3-24.2 3-4.2 4.6-9.1 5.1-14.3z"/><path fill="#FBFBFB" d="M726.3 405.1c-13.7-.6-22.3 8.3-21.8 22.5.2 4.7.8 9.3 3.1 13.5 1.3 2.4.9 4.2-.3 6.4-2.4 4.4-5 8.7-9 11.8-3.4 2.6-7.1 3.6-11.2 1.6-3.9-1.9-5.1-5.3-5.2-9.4-.1-3.4.4-6.7 1.5-9.8 9.7-26.3 22.7-50.8 40.6-72.6 2.4-3 5.4-5.4 8.9-7.1 6.6-3.2 11.5-.3 11.1 7-.8 12.7-6.6 23.9-12 35-.8 1.4-1 1.3-5.7 1.1z"/><path fill="#F7F7F7" d="M274 370.2c-.5 5.2-2.1 10.1-5.1 14.4-6.7 9.5-15 17.3-24.3 24.2-1.6 1.2-3.6 3.1-5.8 1.3-2-1.7-.6-3.9.3-5.5 7.4-14.3 17.6-26.5 29.5-37.3 1.1-1 2.7-2.3 4.5-1.2 1.6.9.6 2.7.9 4.1z"/></svg>